<svg width="359" height="359" viewBox="0 0 359 359" fill="none" xmlns="http://www.w3.org/2000/svg">
<path d="M335.586 235.992C320.759 265.89 294.459 296.886 262.465 302.845C214.122 311.849 203.144 352.057 120.674 337.223C108.596 335.112 96.8099 331.577 85.5641 326.69C80.0276 324.258 74.6636 321.452 69.5096 318.289C23.9022 290.287 4.8896 239.568 9.413 189.717C15.315 124.149 60.9367 98.5886 90.3172 84.006C119.698 69.4234 161.586 3.17357 242.777 17.0597C255.214 19.1337 267.341 22.7642 278.871 27.8656C305.243 39.6695 330.754 61.4034 343.491 89.9008C344.449 92.0404 345.344 94.2184 346.177 96.4346C362.49 139.694 355.798 195.231 335.586 235.992Z" fill="#215DE5"/>
<path opacity="0.7" d="M335.586 235.992C320.759 265.89 294.459 296.886 262.465 302.845C214.122 311.849 203.144 352.057 120.674 337.223C108.596 335.112 96.8099 331.577 85.5641 326.69C80.0276 324.258 74.6636 321.452 69.5096 318.289C23.9022 290.287 4.8896 239.568 9.413 189.717C15.315 124.149 60.9367 98.5886 90.3172 84.006C119.698 69.4234 161.586 3.17357 242.777 17.0597C255.214 19.1337 267.341 22.7642 278.871 27.8656C305.243 39.6695 330.754 61.4034 343.491 89.9008C344.449 92.0404 345.344 94.2184 346.177 96.4346C362.49 139.694 355.798 195.231 335.586 235.992Z" fill="white"/>
<path d="M338.752 327.753H348.374" stroke="#263238" stroke-linecap="round" stroke-linejoin="round"/>
<path d="M9.729 327.753H331.702" stroke="#263238" stroke-linecap="round" stroke-linejoin="round"/>
<g opacity="0.2">
<path d="M237.4 39.6624C239.554 41.9241 246.016 44.5161 246.016 44.5161C246.016 44.5161 246.425 39.727 246.41 39.4254C246.26 35.8785 243.876 29.115 240.049 28.0667C239.408 27.9085 238.74 27.8873 238.09 28.0043C237.44 28.1214 236.822 28.3741 236.276 28.7459C235.73 29.1178 235.268 29.6006 234.921 30.1627C234.574 30.7248 234.35 31.3537 234.262 32.0085C233.795 34.7728 235.576 37.731 237.4 39.6624Z" fill="black"/>
<path d="M301.704 68.727C301.747 68.7845 304.691 64.9575 304.849 64.699C306.673 61.6547 308.439 54.7045 305.804 51.7104C305.356 51.2252 304.81 50.8397 304.203 50.5792C303.597 50.3187 302.942 50.189 302.281 50.1985C301.621 50.208 300.97 50.3565 300.37 50.6343C299.771 50.9121 299.237 51.313 298.803 51.8109C296.886 53.8572 296.743 57.3108 297.195 59.9243C297.726 62.9902 301.704 68.7198 301.704 68.727Z" fill="black"/>
<path d="M330.768 53.6346C327.293 51.696 320.853 54.8337 318.254 57.2246C318.031 57.4328 314.893 61.1018 314.965 61.1306H315.037C314.017 61.6188 312.933 62.1573 311.756 62.7604C309.602 63.902 307.146 65.216 304.576 66.8171C301.803 68.5144 299.133 70.3724 296.577 72.3816C293.712 74.6353 291.054 77.1416 288.636 79.8703L288.55 79.9709C289.024 78.9082 290.259 75.8926 290.323 75.6629C291.286 72.2524 291.128 65.0867 287.818 62.8896C287.258 62.5394 286.631 62.3111 285.978 62.2195C285.324 62.1278 284.659 62.175 284.024 62.358C283.39 62.5409 282.802 62.8554 282.297 63.2811C281.793 63.7067 281.384 64.2339 281.097 64.8283C279.79 67.3125 280.559 70.68 281.686 73.0781C282.95 75.7849 287.889 79.9852 288.284 80.3227C285.875 83.1374 283.658 86.112 281.65 89.2259C280.465 91.0352 279.331 92.8877 278.218 94.7689C278.599 93.8355 278.936 92.9954 278.936 92.8733C279.898 89.4628 279.74 82.2972 276.43 80.1001C275.871 79.7499 275.244 79.5215 274.59 79.4299C273.937 79.3383 273.271 79.3855 272.637 79.5684C272.003 79.7513 271.414 80.0659 270.91 80.4915C270.406 80.9172 269.997 81.4444 269.71 82.0387C268.403 84.523 269.171 87.8904 270.298 90.2957C271.426 92.701 275.576 96.3915 276.681 97.3465C276.265 98.0645 275.834 98.7825 275.418 99.5005C273.415 102.983 271.433 106.465 269.387 109.825C268.669 111.01 267.915 112.144 267.161 113.293C267.498 112.46 267.778 111.764 267.807 111.649C268.769 108.231 268.611 101.066 265.301 98.8686C264.741 98.5198 264.114 98.2927 263.46 98.2022C262.806 98.1117 262.141 98.1598 261.507 98.3433C260.873 98.5268 260.285 98.8417 259.781 99.2674C259.277 99.6932 258.868 100.22 258.581 100.814C257.274 103.299 258.042 106.666 259.169 109.064C260.297 111.462 264.045 114.808 265.359 115.95C264.554 117.091 263.75 118.247 262.917 119.317C262.336 120.035 261.826 120.753 261.194 121.471L259.399 123.546C258.207 124.824 256.98 126.145 255.809 127.359C254.984 128.213 254.187 129.01 253.382 129.814C254.1 128.644 255.493 126.325 255.587 126.117C256.772 123.228 257.197 120.084 256.822 116.984C256.965 116.667 257.081 116.337 257.166 116C257.348 115.366 257.395 114.7 257.303 114.047C257.211 113.393 256.982 112.767 256.632 112.207C256.282 111.648 255.818 111.168 255.271 110.8C254.723 110.432 254.104 110.183 253.454 110.069C249.52 109.509 244.637 114.751 243.079 117.967C242.993 118.161 242.225 120.308 241.758 121.679C241.909 120.832 242.067 120.014 242.21 119.145C242.505 117.422 242.749 115.699 243.014 113.839C243.115 112.941 243.216 112.03 243.316 111.111C243.417 110.191 243.445 109.229 243.517 108.282C243.632 106.07 243.639 103.83 243.596 101.568C245.104 101.82 250.467 102.652 253.045 101.985C255.623 101.317 258.703 99.7733 259.78 97.1813C260.056 96.5814 260.202 95.9301 260.209 95.2697C260.216 94.6094 260.084 93.955 259.821 93.3493C259.558 92.7435 259.171 92.2 258.684 91.7543C258.196 91.3085 257.621 90.9706 256.994 90.7624C253.167 89.5777 247.545 94.058 245.556 96.93C245.434 97.1095 244.214 99.3641 243.574 100.621C243.539 99.2563 243.51 97.9065 243.431 96.528C243.201 92.5646 242.842 88.5653 242.505 84.5661C242.397 83.3383 242.311 82.1177 242.217 80.8971C242.749 80.9976 249.11 82.1177 251.997 81.371C254.56 80.7104 257.647 79.1595 258.731 76.5676C259.005 75.9673 259.15 75.3163 259.156 74.6567C259.162 73.997 259.029 73.3435 258.767 72.7383C258.504 72.1332 258.117 71.59 257.631 71.1439C257.145 70.6978 256.571 70.3587 255.946 70.1486C252.14 68.9998 246.518 73.4442 244.501 76.3593C244.343 76.5819 242.598 79.8273 242.196 80.6673C241.995 77.9748 241.815 75.2895 241.744 72.6401C241.629 69.0461 241.749 65.4485 242.103 61.8701C242.347 61.9132 248.974 63.1122 251.932 62.3511C254.502 61.6906 257.59 60.1397 258.667 57.5477C258.943 56.9478 259.089 56.2965 259.096 55.6361C259.104 54.9758 258.971 54.3214 258.708 53.7157C258.446 53.1099 258.058 52.5664 257.571 52.1207C257.083 51.6749 256.508 51.337 255.881 51.1288C252.083 49.9728 246.461 54.4244 244.436 57.3395C244.307 57.5334 243 60.0033 242.368 61.1952L242.153 61.1306C242.6 57.5504 243.369 54.018 244.45 50.576C245.018 48.6733 245.671 46.8854 246.346 45.1622C247.552 45.5141 253.11 47.0506 255.845 46.6557C258.581 46.2608 261.711 45.0761 263.068 42.6277C263.407 42.0611 263.623 41.4297 263.703 40.7742C263.782 40.1187 263.722 39.4539 263.528 38.823C263.334 38.192 263.009 37.6089 262.575 37.1115C262.14 36.6141 261.607 36.2136 261.008 35.9359C257.353 34.3707 251.279 38.1761 248.945 40.8542C248.823 40.9978 247.696 42.6205 246.892 43.8124C247.208 43.037 247.523 42.2328 247.839 41.5004C249.017 38.7361 250.273 36.2806 251.429 34.1122C252.083 32.8844 252.693 31.7931 253.275 30.7735C254.646 30.4935 260.146 29.3375 262.357 27.7292C264.569 26.1209 266.831 23.6294 266.902 20.822C266.943 20.1631 266.845 19.5029 266.614 18.8845C266.383 18.2661 266.024 17.7035 265.56 17.2333C265.097 16.7631 264.539 16.3958 263.924 16.1556C263.309 15.9154 262.651 15.8075 261.991 15.8391C258.028 16.1335 254.388 22.3011 253.555 25.7547C253.483 26.0563 252.887 30.8453 252.966 30.831H253.045C252.463 31.8003 251.853 32.8485 251.207 34.0045C250.029 36.1585 248.715 38.5854 247.466 41.3353C246.098 44.2824 244.899 47.3053 243.876 50.3893C242.688 53.8518 241.809 57.4126 241.248 61.03C241.252 61.073 241.252 61.1163 241.248 61.1593C241.054 60.0105 240.415 56.8513 240.343 56.5784C239.259 53.1967 235.174 47.3019 231.203 47.3019C230.543 47.3181 229.894 47.4733 229.298 47.7576C228.701 48.0418 228.172 48.4486 227.744 48.9514C227.315 49.4542 226.998 50.0416 226.812 50.6754C226.627 51.3092 226.577 51.975 226.666 52.6294C226.946 55.4225 229.444 57.8062 231.692 59.1848C234.248 60.7428 240.681 61.5255 241.191 61.5829C240.737 65.2626 240.53 68.9686 240.573 72.676C240.573 74.83 240.659 76.984 240.767 79.1883C240.566 78.1974 240.387 77.3143 240.351 77.1994C239.266 73.8176 235.181 67.93 231.211 67.9228C230.552 67.9392 229.904 68.0942 229.309 68.3775C228.714 68.6609 228.185 69.0664 227.757 69.5675C227.329 70.0687 227.011 70.6543 226.824 71.2864C226.638 71.9184 226.586 72.5827 226.673 73.236C226.953 76.029 229.451 78.4128 231.699 79.7914C233.946 81.1699 239.468 81.9454 240.918 82.1536C240.968 82.9865 241.011 83.8265 241.061 84.6594C241.313 88.6659 241.578 92.6651 241.722 96.5997C241.78 97.9855 241.772 99.3497 241.779 100.714C241.607 99.8379 241.449 99.1056 241.413 98.9907C240.329 95.6161 236.251 89.7213 232.273 89.7141C231.613 89.7312 230.964 89.8874 230.368 90.1725C229.772 90.4576 229.243 90.8652 228.815 91.3686C228.388 91.8721 228.071 92.4602 227.886 93.0943C227.701 93.7285 227.652 94.3945 227.743 95.0489C228.015 97.8419 230.521 100.226 232.769 101.604C235.016 102.983 240.006 103.701 241.729 103.931C241.686 105.331 241.65 106.731 241.557 108.088C241.464 109.007 241.442 109.904 241.306 110.831C241.169 111.757 241.061 112.647 240.947 113.552C240.652 115.268 240.365 117.048 240.042 118.721C239.819 119.884 239.59 120.99 239.367 122.11C239.331 120.725 239.202 118.032 239.166 117.802C238.606 114.298 235.468 107.858 231.541 107.255C230.886 107.172 230.221 107.228 229.589 107.419C228.957 107.611 228.372 107.933 227.873 108.365C227.374 108.797 226.971 109.329 226.692 109.927C226.412 110.525 226.261 111.176 226.249 111.836C226.106 114.636 228.209 117.371 230.241 119.08C232.474 120.954 238.462 122.67 239.209 122.871C238.829 124.717 238.441 126.504 238.046 128.185C236.703 133.964 235.368 138.739 234.377 142.078L236.854 143.133L236.919 142.911C237.845 139.5 239.073 134.618 240.343 128.694C240.738 126.828 241.126 124.817 241.507 122.756C243.508 122.798 245.509 122.723 247.502 122.534C248.514 125.356 252.298 129.771 252.786 130.339C251.451 131.66 250.137 132.938 248.881 134.13C244.573 138.208 240.825 141.446 238.161 143.693L240.875 144.849C243.431 142.58 246.762 139.536 250.518 135.817C251.882 134.474 253.311 133.017 254.761 131.509C255.393 131.947 260.505 135.487 263.377 136.011C265.983 136.492 269.437 136.37 271.505 134.474C272.006 134.044 272.412 133.514 272.695 132.917C272.977 132.32 273.131 131.67 273.146 131.009C273.161 130.349 273.037 129.693 272.781 129.083C272.525 128.474 272.144 127.926 271.663 127.474C268.697 124.839 261.726 126.519 258.667 128.321C258.487 128.422 256.664 129.757 255.522 130.683C256.111 130.059 256.692 129.463 257.295 128.816C258.487 127.546 259.643 126.239 260.885 124.839L262.637 122.728C263.241 122.01 263.786 121.227 264.368 120.473C265.682 118.693 266.931 116.826 268.144 114.923C269.257 115.964 273.278 119.619 275.791 120.488C278.304 121.356 281.729 121.758 284.063 120.193C284.623 119.844 285.103 119.381 285.473 118.834C285.842 118.286 286.092 117.668 286.207 117.017C286.321 116.367 286.297 115.7 286.137 115.06C285.977 114.419 285.683 113.82 285.276 113.3C282.741 110.242 275.604 110.852 272.309 112.166C272.101 112.245 269.839 113.458 268.618 114.148C269.336 112.999 270.054 111.85 270.772 110.658C272.768 107.226 274.678 103.686 276.602 100.168C277.191 99.0912 277.785 98.019 278.383 96.9516C278.778 97.3249 283.459 101.769 286.281 102.746C288.78 103.607 292.212 104.017 294.545 102.451C295.106 102.103 295.587 101.64 295.957 101.093C296.327 100.546 296.578 99.9276 296.693 99.2774C296.809 98.6271 296.785 97.96 296.626 97.3192C296.466 96.6785 296.173 96.0786 295.766 95.5586C293.224 92.5 286.087 93.1103 282.792 94.4242C282.54 94.5247 279.295 96.2695 278.484 96.7577C279.798 94.3955 281.126 92.062 282.533 89.8075C284.418 86.757 286.497 83.8311 288.758 81.0479C288.938 81.2274 293.784 85.8872 296.692 86.8852C299.198 87.7468 302.63 88.1561 304.956 86.5908C305.517 86.2422 305.998 85.7794 306.368 85.2325C306.738 84.6857 306.989 84.067 307.104 83.4167C307.22 82.7665 307.196 82.0993 307.037 81.4586C306.877 80.8179 306.584 80.218 306.177 79.698C303.642 76.6394 296.498 77.2496 293.203 78.5636C292.987 78.6497 290.51 79.9996 289.347 80.6386L289.203 80.4591C291.555 77.7244 294.146 75.2039 296.943 72.9273C298.473 71.6564 300.002 70.522 301.51 69.4593C302.328 70.4143 306.112 74.7654 308.611 75.9213C311.11 77.0773 314.355 77.8384 316.861 76.5388C317.456 76.2536 317.984 75.8464 318.411 75.3436C318.838 74.8409 319.155 74.2538 319.341 73.6207C319.526 72.9875 319.577 72.3224 319.488 71.6686C319.4 71.0147 319.175 70.3868 318.828 69.8255C316.674 66.5012 309.494 66.3217 306.062 67.2695C305.875 67.3197 304.037 68.0593 302.716 68.6049C303.434 68.1382 304.109 67.6356 304.777 67.1689C307.29 65.5175 309.688 64.1605 311.82 62.9758C313.041 62.3153 314.161 61.7337 315.209 61.2095C316.502 61.7337 321.743 63.78 324.457 63.6795C327.171 63.5789 330.452 62.7245 332.061 60.4269C332.449 59.9054 332.724 59.3091 332.869 58.6756C333.015 58.0422 333.027 57.3855 332.906 56.747C332.784 56.1086 332.532 55.5023 332.164 54.9666C331.796 54.4308 331.321 53.9773 330.768 53.6346Z" fill="black"/>
</g>
<g opacity="0.2">
<path d="M122.728 41.0482C120.574 43.317 114.112 45.9018 114.112 45.909C114.112 45.9162 113.702 41.12 113.717 40.8112C113.867 37.2643 116.251 30.5079 120.085 29.4525C120.724 29.3012 121.387 29.2852 122.032 29.4056C122.677 29.5259 123.289 29.7798 123.83 30.1511C124.371 30.5223 124.829 31.0026 125.173 31.5612C125.517 32.1198 125.741 32.7442 125.829 33.3943C126.325 36.1586 124.544 39.1239 122.728 41.0482Z" fill="black"/>
<path d="M58.4166 70.1128C58.4166 70.1774 55.4369 66.3505 55.2789 66.0848C53.448 63.0405 51.6961 56.0902 54.324 53.1321C54.772 52.648 55.3168 52.2636 55.9231 52.0038C56.5294 51.744 57.1835 51.6147 57.843 51.6241C58.5025 51.6336 59.1527 51.7817 59.7512 52.0588C60.3498 52.3359 60.8834 52.7359 61.3173 53.2326C63.2343 55.2861 63.3851 58.7325 62.9328 61.346C62.4015 64.376 58.4237 70.1128 58.4166 70.1128Z" fill="black"/>
<path d="M29.3591 55.0204C32.827 53.0818 39.2675 56.2195 41.8666 58.6104C42.0892 58.8186 45.2269 62.4876 45.1623 62.5163H45.0833C46.1028 62.9974 47.1942 63.5359 48.3717 64.1462C50.5257 65.2878 52.9741 66.5946 55.5517 68.1957C58.3237 69.8971 60.9966 71.7549 63.5574 73.7602C66.4235 76.0212 69.0855 78.5295 71.5128 81.2561L71.5918 81.3638C71.118 80.3012 69.8902 77.2784 69.8184 77.0558C68.8634 73.6382 69.0142 66.4725 72.3242 64.2754C72.8846 63.9254 73.5125 63.6973 74.1669 63.6061C74.8214 63.515 75.4877 63.5627 76.1224 63.7463C76.7572 63.9299 77.3461 64.2452 77.8509 64.6716C78.3556 65.098 78.7648 65.626 79.0518 66.2212C80.3586 68.6983 79.5904 72.0729 78.4631 74.471C77.1922 77.1779 72.2524 81.3782 71.8575 81.7085C74.2672 84.5274 76.486 87.5042 78.499 90.6189C79.6765 92.421 80.811 94.2807 81.931 96.1546C81.5433 95.2212 81.213 94.3884 81.213 94.2663C80.2581 90.8486 80.4089 83.683 83.7188 81.4859C84.2793 81.1358 84.9071 80.9078 85.5616 80.8166C86.216 80.7254 86.8823 80.7732 87.5171 80.9568C88.1518 81.1404 88.7408 81.4556 89.2455 81.8821C89.7503 82.3085 90.1595 82.8365 90.4465 83.4317C91.7533 85.916 90.985 89.2834 89.8577 91.6815C88.7305 94.0796 84.5733 97.7845 83.4676 98.7394C83.8912 99.4574 84.3148 100.175 84.7312 100.893C86.7345 104.376 88.7161 107.858 90.7624 111.211C91.4804 112.396 92.2415 113.537 92.9882 114.679C92.6508 113.853 92.3779 113.15 92.342 113.042C91.3871 109.624 91.5379 102.459 94.8479 100.262C95.4083 99.9115 96.0361 99.6835 96.6906 99.5923C97.345 99.5011 98.0113 99.5489 98.6461 99.7325C99.2808 99.9161 99.8698 100.231 100.375 100.658C100.879 101.084 101.288 101.612 101.576 102.207C102.882 104.684 102.114 108.059 100.987 110.457C99.8595 112.855 96.1043 116.201 94.7976 117.336C95.6018 118.484 96.4059 119.633 97.2316 120.71C97.8204 121.428 98.3302 122.146 98.9548 122.864L100.757 124.932C101.949 126.21 103.169 127.531 104.347 128.752C105.173 129.599 105.977 130.396 106.781 131.2C106.063 130.03 104.663 127.711 104.57 127.503C103.383 124.614 102.96 121.469 103.342 118.37C103.196 118.055 103.078 117.728 102.99 117.393C102.809 116.758 102.764 116.092 102.857 115.439C102.951 114.785 103.181 114.159 103.532 113.6C103.884 113.042 104.349 112.563 104.897 112.196C105.446 111.829 106.066 111.581 106.716 111.47C110.651 110.902 115.533 116.151 117.091 119.368C117.185 119.554 117.953 121.708 118.413 123.072C118.262 122.225 118.111 121.414 117.967 120.538C117.673 118.822 117.429 117.092 117.156 115.239C117.063 114.334 116.962 113.43 116.862 112.511C116.761 111.592 116.732 110.622 116.661 109.639C116.546 107.427 116.539 105.187 116.575 102.925C115.067 103.184 109.703 104.01 107.126 103.349C104.548 102.688 101.475 101.13 100.391 98.5456C100.116 97.945 99.9704 97.2933 99.9638 96.6329C99.9571 95.9724 100.089 95.3179 100.352 94.7119C100.615 94.1059 101.002 93.5619 101.489 93.1153C101.975 92.6687 102.55 92.3294 103.177 92.1195C106.982 90.9707 112.604 95.4151 114.622 98.3302C114.751 98.5169 115.964 100.771 116.61 102.021C116.646 100.664 116.668 99.3066 116.754 97.9353C116.984 93.9719 117.336 89.9655 117.68 85.9662C117.781 84.7456 117.867 83.525 117.967 82.2972C117.429 82.3978 111.075 83.5178 108.188 82.7783C105.618 82.1177 102.53 80.5597 101.453 77.9749C101.177 77.375 101.031 76.7236 101.024 76.0633C101.017 75.403 101.149 74.7486 101.412 74.1428C101.675 73.5371 102.062 72.9936 102.55 72.5478C103.037 72.1021 103.613 71.7641 104.239 71.556C108.038 70.4 113.659 74.8444 115.684 77.7595C115.835 77.9821 117.58 81.2274 117.982 82.0675C118.19 79.3822 118.37 76.6968 118.441 74.0402C118.554 70.4582 118.435 66.8726 118.082 63.3061C117.831 63.3492 111.204 64.5555 108.246 63.7944C105.682 63.1338 102.595 61.5758 101.511 58.991C101.23 58.3886 101.08 57.7336 101.07 57.069C101.06 56.4044 101.191 55.7453 101.454 55.1349C101.717 54.5246 102.107 53.9768 102.596 53.5277C103.086 53.0785 103.666 52.7382 104.297 52.529C108.102 51.3802 113.724 55.8246 115.742 58.7397C115.878 58.9335 117.178 61.4106 117.817 62.5953L118.032 62.5307C117.578 58.9511 116.807 55.419 115.727 51.9761C115.16 50.0734 114.507 48.2856 113.839 46.5624C112.626 46.9142 107.068 48.4507 104.333 48.063C101.712 47.6896 98.4737 46.4834 97.1096 44.0278C96.7709 43.4614 96.5552 42.83 96.4765 42.1747C96.3979 41.5195 96.458 40.855 96.6531 40.2245C96.8481 39.594 97.1737 39.0116 97.6086 38.5152C98.0435 38.0188 98.578 37.6195 99.1774 37.3433C102.832 35.778 108.906 39.5762 111.233 42.2544C111.362 42.398 112.482 44.0207 113.286 45.2125C112.97 44.4443 112.661 43.6401 112.346 42.9006C111.161 40.1435 109.904 37.6807 108.756 35.5195C108.109 34.2918 107.492 33.1932 106.91 32.1737C105.539 31.8936 100.039 30.7377 97.8347 29.1365C95.6305 27.5354 93.34 25.0726 93.2826 22.2581C93.2427 21.5991 93.3418 20.9391 93.5734 20.3209C93.805 19.7027 94.164 19.1401 94.6271 18.6695C95.0902 18.199 95.647 17.8311 96.2614 17.5896C96.8759 17.3482 97.5342 17.2386 98.1937 17.268C102.157 17.5624 105.797 23.73 106.63 27.1907C106.702 27.4851 107.298 32.2814 107.226 32.267H107.14C107.722 33.2363 108.339 34.2846 108.985 35.4406C110.163 37.5946 111.47 40.0286 112.719 42.7713C114.094 45.7177 115.293 48.7435 116.309 51.8325C117.476 55.2814 118.332 58.8282 118.865 62.4302C118.865 62.4733 118.865 62.5163 118.865 62.5594C119.052 61.4106 119.691 58.2155 119.77 57.9786C120.883 54.5681 124.932 48.702 128.938 48.6948C129.599 48.7131 130.248 48.8701 130.843 49.1554C131.439 49.4408 131.968 49.8483 132.396 50.3514C132.824 50.8544 133.141 51.4419 133.327 52.0756C133.513 52.7092 133.564 53.375 133.476 54.0296C133.196 56.8154 130.69 59.2064 128.45 60.5849C125.901 62.1358 119.468 62.9184 118.951 62.9759C119.408 66.6554 119.616 70.3614 119.576 74.069C119.576 76.223 119.482 78.377 119.382 80.5812C119.576 79.5976 119.762 78.7144 119.798 78.5924C120.883 75.2106 124.961 69.323 128.938 69.3158C129.599 69.3341 130.248 69.491 130.843 69.7764C131.439 70.0618 131.968 70.4693 132.396 70.9723C132.824 71.4754 133.141 72.0629 133.327 72.6965C133.513 73.3302 133.564 73.996 133.476 74.6505C133.196 77.4364 130.69 79.8273 128.45 81.2059C126.21 82.5844 120.681 83.3599 119.231 83.5681C119.181 84.401 119.145 85.2339 119.088 86.0739C118.836 90.0804 118.571 94.0796 118.427 98.0071C118.377 99.3928 118.377 100.757 118.37 102.128C118.549 101.252 118.7 100.513 118.736 100.405C119.82 97.0234 123.905 91.1286 127.876 91.1286C128.536 91.1448 129.186 91.3001 129.782 91.5843C130.378 91.8686 130.907 92.2753 131.336 92.7781C131.764 93.2809 132.081 93.8684 132.267 94.5022C132.453 95.1359 132.503 95.8018 132.414 96.4562C132.134 99.2492 129.635 101.633 127.388 103.012C125.14 104.39 120.15 105.108 118.427 105.338C118.427 106.738 118.499 108.138 118.599 109.495C118.685 110.421 118.707 111.312 118.851 112.238C118.994 113.164 119.088 114.062 119.21 114.959C119.497 116.682 119.784 118.456 120.114 120.129C120.33 121.299 120.559 122.405 120.789 123.518C120.789 122.139 120.947 119.439 120.983 119.21C121.543 115.706 124.688 109.265 128.615 108.655C129.27 108.572 129.935 108.628 130.566 108.82C131.198 109.011 131.782 109.333 132.281 109.765C132.779 110.198 133.181 110.73 133.46 111.328C133.739 111.926 133.889 112.576 133.9 113.236C134.051 116.036 131.94 118.772 129.915 120.48C127.682 122.362 121.687 124.07 120.94 124.272C121.321 126.117 121.715 127.905 122.11 129.585C123.453 135.372 124.788 140.139 125.779 143.485L123.295 144.541C123.295 144.462 123.295 144.39 123.238 144.311C122.311 140.908 121.048 136.018 119.806 130.094C119.411 128.228 119.023 126.217 118.65 124.157C116.646 124.202 114.642 124.128 112.647 123.934C111.642 126.756 107.858 131.171 107.363 131.739C108.698 133.067 110.012 134.345 111.269 135.53C115.577 139.608 119.324 142.853 121.995 145.094L119.188 146.257C116.639 143.995 113.308 140.943 109.545 137.231C108.188 135.889 106.752 134.424 105.302 132.923C104.677 133.354 99.5579 136.901 96.6859 137.425C94.0724 137.899 90.6188 137.777 88.5582 135.882C88.0562 135.453 87.6503 134.923 87.3669 134.327C87.0835 133.731 86.929 133.082 86.9134 132.422C86.8978 131.762 87.0216 131.106 87.2765 130.497C87.5315 129.888 87.9119 129.34 88.393 128.888C91.3655 126.246 98.3302 127.926 101.389 129.728C101.568 129.836 103.399 131.207 104.534 132.091C103.945 131.466 103.363 130.87 102.767 130.224C101.568 128.953 100.412 127.646 99.1774 126.246L97.4255 124.135C96.8223 123.417 96.2767 122.634 95.6951 121.881C94.3811 120.107 93.139 118.24 91.9256 116.33C90.8055 117.379 86.7919 121.026 84.2717 121.895C81.7515 122.764 78.3339 123.166 76.0075 121.601C75.4469 121.253 74.9659 120.791 74.5959 120.244C74.2258 119.698 73.975 119.08 73.8599 118.43C73.7447 117.781 73.7677 117.114 73.9275 116.474C74.0872 115.834 74.3801 115.234 74.7869 114.715C77.3215 111.649 84.4656 112.259 87.7612 113.573C87.9622 113.659 90.2239 114.873 91.4517 115.562C90.7337 114.406 90.0157 113.257 89.2977 112.073C87.3089 108.641 85.3918 105.101 83.4747 101.583C82.886 100.499 82.2828 99.4287 81.6869 98.3589C81.2992 98.7394 76.6106 103.177 73.7889 104.153C71.2831 105.022 67.8511 105.424 65.5176 103.866C64.9573 103.517 64.4768 103.053 64.1074 102.506C63.738 101.959 63.4879 101.34 63.3735 100.69C63.259 100.04 63.2827 99.373 63.4431 98.7326C63.6034 98.0922 63.8968 97.4927 64.3041 96.9732C66.8387 93.9073 73.9828 94.5176 77.2712 95.8387C77.5225 95.9321 80.7679 97.684 81.5792 98.165C80.2653 95.81 78.937 93.4693 77.5297 91.222C75.6531 88.1678 73.576 85.2415 71.3118 82.4624C71.1251 82.6347 66.2858 87.2945 63.4138 88.2925C60.908 89.1541 57.476 89.5634 55.1425 87.9982C54.5834 87.6519 54.1033 87.192 53.7333 86.6484C53.3633 86.1048 53.1116 85.4895 52.9945 84.8424C52.8774 84.1953 52.8976 83.5309 53.0536 82.8921C53.2096 82.2532 53.4981 81.6543 53.9003 81.1341C56.4349 78.0682 63.5718 78.6785 66.8674 79.9925C67.0828 80.0786 69.5599 81.4285 70.723 82.0675L70.8666 81.8952C68.5165 79.1565 65.9262 76.6334 63.1266 74.3562C61.6045 73.0853 60.0751 71.958 58.5601 70.8882C57.7416 71.8503 53.9578 76.1942 51.4591 77.3502C49.0682 78.4918 45.7151 79.2673 43.2165 77.9749C42.6199 77.6904 42.09 77.2834 41.6613 76.7804C41.2326 76.2774 40.9147 75.6897 40.7284 75.0556C40.5421 74.4215 40.4916 73.7552 40.5801 73.1003C40.6686 72.4453 40.8941 71.8163 41.242 71.2544C43.4319 67.9372 50.576 67.7577 54.0152 68.7055C54.2019 68.7558 56.0328 69.4881 57.3611 70.041C56.6431 69.5671 55.9681 69.0717 55.3004 68.605C52.7874 66.9536 50.3893 65.5966 48.2496 64.4047C47.029 63.7728 45.9521 63.1841 44.8607 62.6671C43.5683 63.1913 38.3269 65.2376 35.6129 65.1442C32.8988 65.0509 29.6176 64.1893 28.0021 61.8917C27.6058 61.3632 27.3252 60.7573 27.1784 60.1133C27.0316 59.4694 27.0218 58.8017 27.1498 58.1537C27.2778 57.5057 27.5406 56.8919 27.9212 56.3521C28.3018 55.8123 28.7917 55.3586 29.3591 55.0204Z" fill="black"/>
</g>
<path d="M341.488 122.512V125.786C341.461 126.173 341.289 126.535 341.006 126.8C340.723 127.064 340.35 127.211 339.962 127.211C339.575 127.211 339.202 127.064 338.918 126.8C338.635 126.535 338.463 126.173 338.436 125.786V122.512H329.512V125.786C329.485 126.173 329.313 126.535 329.03 126.8C328.746 127.064 328.373 127.211 327.986 127.211C327.598 127.211 327.225 127.064 326.942 126.8C326.659 126.535 326.487 126.173 326.46 125.786V122.512H317.543V125.786C317.543 126.192 317.381 126.581 317.095 126.868C316.808 127.155 316.419 127.316 316.013 127.316C315.608 127.316 315.219 127.155 314.932 126.868C314.645 126.581 314.484 126.192 314.484 125.786V122.512H305.566V125.786C305.54 126.173 305.368 126.535 305.084 126.8C304.801 127.064 304.428 127.211 304.041 127.211C303.653 127.211 303.28 127.064 302.997 126.8C302.714 126.535 302.541 126.173 302.515 125.786V122.512H293.59V125.786C293.59 126.19 293.43 126.577 293.144 126.863C292.859 127.148 292.472 127.309 292.068 127.309C291.664 127.309 291.277 127.148 290.992 126.863C290.706 126.577 290.546 126.19 290.546 125.786V122.512H286.482V164.874H345.624V122.512H341.488ZM296.211 158.764H291.608V154.162H296.211V158.764ZM296.211 152.087H291.608V147.484H296.211V152.087ZM296.211 145.409H291.608V140.807H296.211V145.409ZM296.211 138.732H291.608V134.13H296.211V138.732ZM303.585 158.764H298.975V154.162H303.585V158.764ZM303.585 152.087H298.975V147.484H303.585V152.087ZM303.585 145.409H298.975V140.807H303.585V145.409ZM303.585 138.732H298.975V134.13H303.585V138.732ZM310.944 158.764H306.349V154.162H310.944V158.764ZM310.944 152.087H306.349V147.484H310.944V152.087ZM310.944 145.409H306.349V140.807H310.944V145.409ZM310.944 138.732H306.349V134.13H310.944V138.732ZM318.318 158.764H313.709V154.162H318.318V158.764ZM318.318 152.087H313.709V147.484H318.318V152.087ZM318.318 145.409H313.709V140.807H318.318V145.409ZM318.318 138.732H313.709V134.13H318.318V138.732ZM325.685 158.764H321.082V154.162H325.685V158.764ZM325.685 152.087H321.082V147.484H325.685V152.087ZM325.685 145.409H321.082V140.807H325.685V145.409ZM325.685 138.732H321.082V134.13H325.685V138.732ZM333.059 158.764H328.449V154.162H333.059V158.764ZM333.059 152.087H328.449V147.484H333.059V152.087ZM333.059 145.409H328.449V140.807H333.059V145.409ZM333.059 138.732H328.449V134.13H333.059V138.732ZM340.418 158.764H335.823V154.162H340.418V158.764ZM340.418 152.087H335.823V147.484H340.418V152.087ZM340.418 145.409H335.823V140.807H340.418V145.409ZM340.418 138.732H335.823V134.13H340.418V138.732Z" stroke="#263238" stroke-linecap="round" stroke-linejoin="round"/>
<path d="M341.488 119.073V125.786C341.461 126.173 341.289 126.535 341.006 126.8C340.723 127.064 340.35 127.211 339.962 127.211C339.575 127.211 339.202 127.064 338.919 126.8C338.635 126.535 338.463 126.173 338.437 125.786V119.073C338.463 118.687 338.635 118.325 338.919 118.06C339.202 117.796 339.575 117.649 339.962 117.649C340.35 117.649 340.723 117.796 341.006 118.06C341.289 118.325 341.461 118.687 341.488 119.073Z" stroke="#263238" stroke-linecap="round" stroke-linejoin="round"/>
<path d="M329.511 119.073V125.786C329.485 126.173 329.313 126.535 329.029 126.8C328.746 127.064 328.373 127.211 327.986 127.211C327.598 127.211 327.225 127.064 326.942 126.8C326.659 126.535 326.486 126.173 326.46 125.786V119.073C326.486 118.687 326.659 118.325 326.942 118.06C327.225 117.796 327.598 117.649 327.986 117.649C328.373 117.649 328.746 117.796 329.029 118.06C329.313 118.325 329.485 118.687 329.511 119.073Z" stroke="#263238" stroke-linecap="round" stroke-linejoin="round"/>
<path d="M317.543 119.073V125.786C317.543 126.192 317.381 126.581 317.095 126.868C316.808 127.155 316.419 127.316 316.013 127.316C315.608 127.316 315.219 127.155 314.932 126.868C314.645 126.581 314.484 126.192 314.484 125.786V119.073C314.484 118.873 314.523 118.674 314.6 118.489C314.677 118.304 314.79 118.136 314.932 117.994C315.074 117.853 315.243 117.741 315.429 117.665C315.614 117.589 315.813 117.55 316.013 117.551C316.213 117.549 316.412 117.587 316.597 117.664C316.782 117.74 316.95 117.853 317.09 117.996C317.233 118.137 317.347 118.304 317.425 118.489C317.503 118.674 317.543 118.873 317.543 119.073Z" stroke="#263238" stroke-linecap="round" stroke-linejoin="round"/>
<path d="M305.566 119.073V125.787C305.54 126.173 305.367 126.535 305.084 126.8C304.801 127.064 304.428 127.211 304.04 127.211C303.653 127.211 303.28 127.064 302.997 126.8C302.713 126.535 302.541 126.173 302.515 125.787V119.073C302.515 118.873 302.554 118.674 302.631 118.489C302.708 118.304 302.821 118.136 302.963 117.994C303.105 117.853 303.274 117.741 303.459 117.665C303.645 117.589 303.843 117.55 304.044 117.551C304.448 117.551 304.835 117.711 305.12 117.997C305.406 118.282 305.566 118.669 305.566 119.073Z" stroke="#263238" stroke-linecap="round" stroke-linejoin="round"/>
<path d="M293.59 119.073V125.786C293.59 126.19 293.43 126.577 293.144 126.863C292.859 127.148 292.472 127.309 292.068 127.309C291.664 127.309 291.277 127.148 290.992 126.863C290.706 126.577 290.546 126.19 290.546 125.786V119.073C290.546 118.669 290.706 118.282 290.992 117.997C291.277 117.711 291.664 117.551 292.068 117.551C292.472 117.551 292.859 117.711 293.144 117.997C293.43 118.282 293.59 118.669 293.59 119.073Z" stroke="#263238" stroke-linecap="round" stroke-linejoin="round"/>
<path d="M51.9254 168.328C65.3483 168.328 76.2297 157.447 76.2297 144.024C76.2297 130.601 65.3483 119.719 51.9254 119.719C38.5025 119.719 27.6211 130.601 27.6211 144.024C27.6211 157.447 38.5025 168.328 51.9254 168.328Z" stroke="#263238" stroke-linecap="round" stroke-linejoin="round"/>
<path d="M56.8246 164.956C68.3862 162.257 75.5707 150.696 72.8718 139.135C70.1728 127.573 58.6123 120.389 47.0508 123.088C35.4892 125.787 28.3046 137.347 31.0036 148.909C33.7026 160.47 45.263 167.655 56.8246 164.956Z" stroke="#263238" stroke-linecap="round" stroke-linejoin="round"/>
<path d="M51.9256 146.077C53.0597 146.077 53.979 145.158 53.979 144.024C53.979 142.889 53.0597 141.97 51.9256 141.97C50.7914 141.97 49.8721 142.889 49.8721 144.024C49.8721 145.158 50.7914 146.077 51.9256 146.077Z" fill="#263238" stroke="#263238" stroke-linecap="round" stroke-linejoin="round"/>
<path d="M59.4073 147.685L51.9258 144.024L39.4541 157.659" stroke="#263238" stroke-linecap="round" stroke-linejoin="round"/>
<path d="M270.586 52.3063H97.239C94.828 52.3063 92.8735 54.2607 92.8735 56.6717V317.543C92.8735 319.954 94.828 321.908 97.239 321.908H270.586C272.997 321.908 274.951 319.954 274.951 317.543V56.6717C274.951 54.2607 272.997 52.3063 270.586 52.3063Z" fill="#263238" stroke="#263238" stroke-linecap="round" stroke-linejoin="round"/>
<path d="M265.703 58.3877H102.128V311.519H265.703V58.3877Z" fill="white" stroke="#263238" stroke-linecap="round" stroke-linejoin="round"/>
<path d="M206.755 124.056H219.457" stroke="#263238" stroke-miterlimit="10"/>
<path d="M118.664 124.056H196.919" stroke="#263238" stroke-miterlimit="10"/>
<path d="M187.908 133.893H219.457" stroke="#263238" stroke-miterlimit="10"/>
<path d="M139.558 133.893H179.307" stroke="#263238" stroke-miterlimit="10"/>
<path d="M118.664 133.893H132.184" stroke="#263238" stroke-miterlimit="10"/>
<path d="M157.996 143.722H219.457" stroke="#263238" stroke-miterlimit="10"/>
<path d="M118.664 143.722H144.476" stroke="#263238" stroke-miterlimit="10"/>
<path d="M247.425 143.437C253.15 142.076 256.688 136.332 255.327 130.607C253.967 124.882 248.222 121.343 242.497 122.704C236.772 124.065 233.234 129.809 234.595 135.534C235.955 141.26 241.7 144.798 247.425 143.437Z" stroke="#263238" stroke-miterlimit="10"/>
<path d="M131.365 167.897H118.664" stroke="#263238" stroke-miterlimit="10"/>
<path d="M219.457 167.897H141.202" stroke="#263238" stroke-miterlimit="10"/>
<path d="M150.213 177.734H118.664" stroke="#263238" stroke-miterlimit="10"/>
<path d="M198.563 177.734H158.814" stroke="#263238" stroke-miterlimit="10"/>
<path d="M219.457 177.734H205.937" stroke="#263238" stroke-miterlimit="10"/>
<path d="M180.125 187.563H118.664" stroke="#263238" stroke-miterlimit="10"/>
<path d="M219.457 187.563H193.645" stroke="#263238" stroke-miterlimit="10"/>
<path d="M247.423 187.267C253.148 185.907 256.686 180.162 255.325 174.437C253.965 168.712 248.22 165.174 242.495 166.535C236.77 167.896 233.232 173.64 234.593 179.365C235.954 185.09 241.698 188.628 247.423 187.267Z" stroke="#263238" stroke-miterlimit="10"/>
<path d="M206.755 211.738H219.457" stroke="#263238" stroke-miterlimit="10"/>
<path d="M118.664 211.738H196.919" stroke="#263238" stroke-miterlimit="10"/>
<path d="M187.908 221.575H219.457" stroke="#263238" stroke-miterlimit="10"/>
<path d="M139.558 221.575H179.307" stroke="#263238" stroke-miterlimit="10"/>
<path d="M118.664 221.575H132.184" stroke="#263238" stroke-miterlimit="10"/>
<path d="M157.996 231.404H219.457" stroke="#263238" stroke-miterlimit="10"/>
<path d="M118.664 231.404H144.476" stroke="#263238" stroke-miterlimit="10"/>
<path d="M252.49 228.281C256.651 224.12 256.651 217.373 252.49 213.212C248.329 209.051 241.583 209.051 237.422 213.212C233.26 217.373 233.26 224.12 237.422 228.281C241.583 232.442 248.329 232.442 252.49 228.281Z" stroke="#263238" stroke-miterlimit="10"/>
<path d="M197.687 31.075C197.318 31.075 196.964 30.9282 196.702 30.667C196.441 30.4058 196.294 30.0515 196.294 29.6821V21.8559C196.294 21.4674 196.218 21.0827 196.069 20.7238C195.921 20.3649 195.703 20.0388 195.428 19.7641C195.153 19.4894 194.827 19.2716 194.468 19.1229C194.109 18.9742 193.725 18.8977 193.336 18.8977H180.721C180.332 18.8968 179.947 18.9726 179.587 19.1208C179.227 19.2691 178.9 19.4868 178.625 19.7616C178.349 20.0364 178.131 20.3628 177.982 20.7222C177.832 21.0815 177.756 21.4668 177.756 21.8559V29.6821C177.757 29.8647 177.722 30.0456 177.652 30.2146C177.583 30.3835 177.481 30.5371 177.352 30.6666C177.224 30.796 177.071 30.8987 176.902 30.9688C176.733 31.0389 176.553 31.075 176.37 31.075C176.187 31.074 176.006 31.1092 175.837 31.1784C175.669 31.2476 175.515 31.3495 175.385 31.4783C175.256 31.6071 175.153 31.7602 175.083 31.9288C175.013 32.0974 174.977 32.2781 174.977 32.4607V53.6633H199.073V32.4607C199.073 32.0932 198.927 31.7407 198.667 31.4809C198.407 31.221 198.055 31.075 197.687 31.075ZM187.025 30.357C186.257 30.3556 185.507 30.1266 184.869 29.6989C184.231 29.2712 183.734 28.664 183.442 27.9541C183.149 27.2442 183.073 26.4634 183.223 25.7104C183.374 24.9574 183.745 24.2659 184.288 23.7234C184.832 23.1809 185.524 22.8117 186.277 22.6624C187.03 22.5131 187.811 22.5904 188.52 22.8846C189.23 23.1788 189.836 23.6767 190.263 24.3153C190.689 24.9539 190.917 25.7047 190.917 26.4726C190.913 27.5016 190.501 28.487 189.771 29.2125C189.042 29.9381 188.054 30.3445 187.025 30.3426V30.357Z" fill="#263238" stroke="#263238" stroke-linecap="round" stroke-linejoin="round"/>
<path d="M155.613 46.9213H218.445C220.091 46.9232 221.669 47.5784 222.832 48.7429C223.995 49.9074 224.648 51.486 224.648 53.132V60.2761H149.402V53.132C149.402 51.4848 150.056 49.9051 151.221 48.7403C152.386 47.5756 153.965 46.9213 155.613 46.9213Z" fill="white" stroke="#263238" stroke-linecap="round" stroke-linejoin="round"/>
<path d="M151.269 49.2332H222.789C222.125 48.5044 221.317 47.9223 220.416 47.5242C219.514 47.1261 218.54 46.9207 217.554 46.9212H156.524C155.535 46.9168 154.556 47.1203 153.651 47.5186C152.745 47.9169 151.934 48.501 151.269 49.2332Z" fill="#263238" stroke="#263238" stroke-linecap="round" stroke-linejoin="round"/>
<path d="M224.648 60.2114H149.402V64.5984H224.648V60.2114Z" fill="white" stroke="#263238" stroke-linecap="round" stroke-linejoin="round"/>
<path d="M240.896 175.149L243.79 180.29L254.732 169.678" stroke="#215DE5" stroke-width="6" stroke-miterlimit="10" stroke-linecap="round"/>
<path d="M240.896 130.841L243.79 135.989L254.732 125.37" stroke="#215DE5" stroke-width="6" stroke-miterlimit="10" stroke-linecap="round"/>
<path d="M206.755 80.7175H219.457" stroke="#263238" stroke-miterlimit="10"/>
<path d="M118.664 80.7175H196.919" stroke="#263238" stroke-miterlimit="10"/>
<path d="M187.908 90.5469H219.457" stroke="#263238" stroke-miterlimit="10"/>
<path d="M139.558 90.5469H179.307" stroke="#263238" stroke-miterlimit="10"/>
<path d="M118.664 90.5469H132.184" stroke="#263238" stroke-miterlimit="10"/>
<path d="M157.996 100.384H219.457" stroke="#263238" stroke-miterlimit="10"/>
<path d="M118.664 100.384H144.476" stroke="#263238" stroke-miterlimit="10"/>
<path d="M252.495 97.258C256.656 93.097 256.656 86.3505 252.495 82.1894C248.334 78.0284 241.587 78.0284 237.426 82.1894C233.265 86.3505 233.265 93.097 237.426 97.2581C241.587 101.419 248.334 101.419 252.495 97.258Z" stroke="#263238" stroke-miterlimit="10"/>
<path d="M240.896 87.5027L243.79 92.6507L254.732 82.0315" stroke="#215DE5" stroke-width="6" stroke-miterlimit="10" stroke-linecap="round"/>
<path d="M239.367 216.951L242.261 222.099L253.196 211.48" stroke="#215DE5" stroke-width="6" stroke-miterlimit="10" stroke-linecap="round"/>
<path d="M297.905 149.107C297.905 149.107 301.79 152.395 301.495 155.282C301.201 158.168 297.316 165.233 296.426 167.323C295.536 169.412 297.618 174.388 297.618 174.388L284.694 178.768C284.853 178.012 284.853 177.232 284.694 176.477C284.4 175.759 283.897 173.885 283.897 173.885L281.312 174.783C280.716 174.984 278.627 173.986 278.526 173.095C278.426 172.205 278.426 171.602 278.325 170.302C278.267 168.965 278.102 167.635 277.83 166.325C277.629 165.93 275.64 164.63 275.74 163.934C275.841 163.237 278.124 160.552 278.325 159.662C278.526 158.771 278.031 156.79 278.225 155.677C278.419 154.564 280.314 150.801 280.314 150.801C280.314 150.801 279.122 149.803 282.404 147.118C285.685 144.433 293.927 143.636 297.905 149.107Z" fill="white" stroke="#263238" stroke-linecap="round" stroke-linejoin="round"/>
<path d="M297.905 149.107C293.928 143.636 285.699 144.433 282.382 147.118C279.065 149.803 280.293 150.801 280.293 150.801L283.28 153.092C283.28 153.092 280.494 156.273 280.896 156.682C281.298 157.091 283.481 159.863 283.481 159.863L283.287 160.789L282.892 159.288C282.892 159.288 281.657 164.235 281.456 165.47C281.255 166.705 281.219 167.172 280.681 167.33C280.142 167.488 277.809 166.332 277.809 166.332C277.809 166.332 277.809 169.261 277.715 170.496C277.622 171.731 277.557 172.744 277.478 173.821C277.399 174.898 279.029 176.693 280.961 176.298C282.892 175.903 283.933 174.898 283.876 173.892C283.818 172.887 284.515 169.419 284.206 168.723C283.897 168.026 283.316 164.573 283.876 163.051C283.876 163.051 285.168 160.265 286.568 160.265C287.968 160.265 288.155 164.041 287.76 164.939C287.365 165.836 287.164 166.332 287.164 166.332C287.164 166.332 287.164 166.928 291.041 168.22C293.956 169.197 295.579 168.651 296.211 168.321C296.222 167.981 296.293 167.646 296.419 167.33C297.31 165.24 301.194 158.175 301.488 155.289C301.783 152.403 297.905 149.107 297.905 149.107Z" fill="#263238" stroke="#263238" stroke-linecap="round" stroke-linejoin="round"/>
<path d="M287.2 166.325C287.2 166.325 286.302 167.718 285.505 168.019C284.708 168.321 284.213 167.222 284.213 167.222" stroke="#263238" stroke-linecap="round" stroke-linejoin="round"/>
<path d="M278.584 159.956C278.584 160.674 278.763 161.248 278.979 161.248C279.194 161.248 279.381 160.674 279.381 159.956C279.381 159.238 279.201 158.664 278.979 158.664C278.756 158.664 278.584 159.245 278.584 159.956Z" fill="#263238"/>
<path d="M279.797 158.362C279.797 158.362 279.998 157.07 278.404 157.644" stroke="#263238" stroke-linecap="round" stroke-linejoin="round"/>
<path d="M278.85 169.197C279.403 169.056 279.915 168.785 280.343 168.407" stroke="white" stroke-linecap="round" stroke-linejoin="round"/>
<path d="M242.411 194.65H264.935L270.162 212.305H247.638L242.411 194.65Z" fill="white" stroke="#263238" stroke-linecap="round" stroke-linejoin="round"/>
<path d="M244.012 195.669H263.937L268.561 211.286H248.636L244.012 195.669Z" fill="white" stroke="#263238" stroke-linecap="round" stroke-linejoin="round"/>
<path d="M247.796 213.684H275.281V212.492H247.796V213.684Z" fill="white" stroke="#263238" stroke-linecap="round" stroke-linejoin="round"/>
<path d="M283.983 326.625C283.983 326.625 281.556 330.022 279.919 330.933C278.282 331.845 274.276 332.843 274.276 333.87C274.276 334.897 274.577 335.062 276.365 335.658C278.153 336.254 281.391 336.254 283.208 336.254C284.646 336.204 286.085 336.254 287.516 336.405C289.29 336.662 291.079 336.811 292.872 336.85C294.358 336.85 294.308 332.894 294.308 332.894L283.983 326.625Z" fill="white" stroke="#263238" stroke-linecap="round" stroke-linejoin="round"/>
<path d="M307.929 242.296C307.929 242.296 304.432 270.061 301.086 279.302C297.74 288.543 299.169 291.35 296.9 300.77C294.631 310.19 294.28 332.362 294.28 332.894C294.28 333.425 293.231 332.894 289.569 330.969C287.444 329.89 285.547 328.41 283.983 326.611C284.086 325.495 284.261 324.387 284.508 323.294C284.852 321.858 285.556 318.232 285.556 318.232C285.556 318.232 284.156 306.356 285.728 287.358C287.301 268.36 287.997 245.771 287.997 245.771C287.997 245.771 300.77 244.041 307.929 242.296Z" fill="#263238" stroke="#263238" stroke-linecap="round" stroke-linejoin="round"/>
<path d="M290.352 332.642C290.352 332.642 287.839 335.256 286.274 336.096C284.709 336.936 279.812 338.709 279.683 339.442C279.553 340.174 280.099 341.639 280.401 341.739C283.195 342.28 286.028 342.594 288.873 342.68C292.843 342.787 297.446 342.263 298.595 342.263C299.743 342.263 302.465 343.312 302.572 340.174C302.68 337.036 301 332.542 301 332.542C301 332.542 295.471 334.215 290.352 332.642Z" fill="white" stroke="#263238" stroke-linecap="round" stroke-linejoin="round"/>
<path d="M298.508 252.736C298.508 252.736 297.238 270.686 296.606 276.1C295.974 281.513 297.252 292.944 298.688 300.842C300.124 308.74 300.598 325.153 300.598 325.153C300.855 325.318 301.045 325.569 301.132 325.862C301.219 326.155 301.197 326.469 301.072 326.747C300.709 327.523 300.39 328.319 300.117 329.131C300.117 329.131 301.869 329.763 301.711 330.876C301.553 331.989 301.072 334.057 301.072 334.057C299.641 334.203 298.202 334.256 296.764 334.215C294.734 334.212 292.71 333.998 290.725 333.576L289.454 332.944C289.454 332.944 289.131 330.402 289.131 328.966C289.131 327.53 290.725 326.094 290.567 325.311C290.409 324.529 289.62 320.07 288.981 316.415C288.342 312.761 288.823 310.535 287.71 306.722C286.597 302.91 280.4 280.156 280.4 280.156C280.4 280.156 277.528 253.777 277.378 250.122C277.227 246.468 277.22 244.874 277.22 244.874C277.22 244.874 282.145 240.903 283.258 240.903C284.371 240.903 298.508 252.736 298.508 252.736Z" fill="#263238" stroke="#263238" stroke-linecap="round" stroke-linejoin="round"/>
<path d="M276.746 242.196C276.746 242.196 276.2 246.195 276.746 247.006C277.292 247.818 282.016 249.096 287.918 249.735C293.82 250.374 301.366 249.735 303.908 248.823C306.45 247.911 308.087 247.1 308.453 246.461C308.819 245.822 308.539 242.469 308.539 242.469C308.539 242.469 285.046 243.833 276.746 242.196Z" fill="#215DE5" stroke="#263238" stroke-linecap="round" stroke-linejoin="round"/>
<path d="M299.7 176.772C299.7 176.772 308.058 182.358 309.616 191.232C310.995 199.13 308.754 227.024 308.754 228.518C308.754 230.011 309.903 242.102 309.903 242.102C311.088 244.644 301.402 246.97 296.096 247.466C291.4 247.904 281.018 246.856 278.053 245.384C277.112 244.917 276.207 244.407 276.186 243.359C276.078 238.484 275.827 225.481 276.15 223.542C276.552 221.151 276.114 207.222 276.114 202.447C276.114 197.673 274.326 190.406 275.92 187.319C277.514 184.232 281.592 182.149 281.592 182.149C286.8 178.266 293.218 176.36 299.7 176.772Z" fill="#215DE5" stroke="#263238" stroke-linecap="round" stroke-linejoin="round"/>
<path d="M299.779 205.003C299.17 206.219 298.449 207.375 297.625 208.457" stroke="#263238" stroke-linecap="round" stroke-linejoin="round"/>
<path d="M305.466 193.099C305.466 193.099 303.549 197.464 301.517 201.6" stroke="#263238" stroke-linecap="round" stroke-linejoin="round"/>
<path d="M301.546 206.892L297.31 212.535" stroke="#263238" stroke-linecap="round" stroke-linejoin="round"/>
<path d="M299.801 172.693L301.689 177.468C301.689 177.468 297.711 177.669 294.028 178.186C290.345 178.703 281.592 182.171 281.592 182.171C281.592 182.171 282.483 178.581 283.179 177.863C285.444 175.623 288.318 174.1 291.443 173.483C294.18 172.837 296.992 172.572 299.801 172.693Z" fill="#215DE5" stroke="#263238" stroke-linecap="round" stroke-linejoin="round"/>
<path d="M285.398 218.006C285.398 218.006 284.759 225.524 283.962 225.904C283.165 226.285 262.63 219.119 261.158 218.387C260.354 217.989 259.482 217.745 258.588 217.669C258.308 217.583 255.823 217.583 254.904 217.116C254.129 216.591 253.42 215.973 252.793 215.278C252.513 215.098 250.309 215.005 249.67 214.56C249.031 214.115 248.198 213.734 248.751 213.454C249.835 213.114 250.938 212.838 252.054 212.628C252.054 212.628 252.147 211.343 253.253 211.157C254.359 210.97 253.971 211.437 256.656 209.871C259.342 208.306 259.047 209.599 261.345 211.25C263.642 212.901 264.741 214.747 265.021 214.84C265.301 214.933 273.637 218.064 273.637 218.064L285.398 218.006Z" fill="white" stroke="#263238" stroke-linecap="round" stroke-linejoin="round"/>
<path d="M252.025 212.578L256.534 212.025" stroke="#263238" stroke-linecap="round" stroke-linejoin="round"/>
<path d="M267.096 215.515C267.096 215.515 265.832 214.423 264.978 214.797C264.123 215.17 262.881 216.771 262.759 218.753C262.637 220.735 265.861 220.986 265.861 220.986L267.096 215.515Z" fill="#215DE5" stroke="#263238" stroke-linecap="round" stroke-linejoin="round"/>
<path d="M284.048 183.047C282.39 183.047 278.024 184.253 276.667 185.761C275.31 187.269 275.159 191.634 275.612 197.507C276.064 203.381 278.369 214.38 278.376 214.438C278.376 214.309 278.096 215.019 278.024 215.156C277.723 215.694 278.491 215.78 277.773 215.874C277.147 215.964 276.516 216.012 275.884 216.017L272.725 215.479C270.615 215.114 268.482 214.888 266.342 214.804C265.675 214.804 263.908 220.203 264.906 221.381C265.904 222.558 285.872 230.306 287.214 229.997C288.557 229.688 291.12 212.047 291.085 211.939C291.472 207.1 291.939 201.428 292.025 200.832" fill="#215DE5"/>
<path d="M284.048 183.047C282.39 183.047 278.024 184.253 276.667 185.761C275.31 187.269 275.159 191.634 275.612 197.507C276.064 203.381 278.369 214.38 278.376 214.438C278.376 214.309 278.096 215.019 278.024 215.156C277.723 215.694 278.491 215.78 277.773 215.874C277.147 215.964 276.516 216.012 275.884 216.017L272.725 215.479C270.615 215.114 268.482 214.888 266.342 214.804C265.675 214.804 263.908 220.203 264.906 221.381C265.904 222.558 285.872 230.306 287.214 229.997C288.557 229.688 291.12 212.047 291.085 211.939C291.472 207.1 291.939 201.428 292.025 200.832" stroke="#263238" stroke-linecap="round" stroke-linejoin="round"/>
<path d="M277.772 215.888C279.087 217.265 280.495 218.548 281.987 219.729" stroke="#263238" stroke-linecap="round" stroke-linejoin="round"/>
<path d="M279.632 219.363C280.522 220.197 281.523 220.905 282.605 221.467" stroke="#263238" stroke-linecap="round" stroke-linejoin="round"/>
<path d="M205.176 170.59C204.766 168.127 203.122 166.483 202.706 164.975C202.355 163.838 201.899 162.737 201.342 161.687C199.944 164.551 198.865 167.561 198.125 170.662L197.766 169.807L190.988 175.149L190.586 187.032L201.629 187.549C201.629 187.549 201.176 185.582 201.018 184.124C200.899 182.683 200.983 181.233 201.27 179.816C201.27 179.816 204.393 179.888 204.666 178.789C204.939 177.691 205.585 173.038 205.176 170.59Z" fill="white" stroke="#263238" stroke-linecap="round" stroke-linejoin="round"/>
<path d="M203.402 166.217C203.816 166.374 204.248 166.483 204.687 166.54C205.089 166.54 205.807 166.619 205.57 167.588C205.475 168.103 205.188 168.563 204.766 168.874L203.402 166.217Z" fill="white" stroke="#263238" stroke-linecap="round" stroke-linejoin="round"/>
<path d="M200.121 303.513C200.121 303.513 198.613 329.174 198.613 329.584C198.613 329.993 196.71 336.362 196.983 337.309C197.256 338.257 199.424 338.53 200.918 338.666C202.411 338.803 205.52 339.205 206.741 339.205C208.876 339.175 211.007 338.995 213.117 338.666C213.928 338.393 215.012 337.582 214.065 336.9C213.117 336.218 210.812 335.952 208.098 332.836C206.814 331.469 205.678 329.969 204.709 328.363L210.453 303.786L200.121 303.513Z" fill="white" stroke="#263238" stroke-linecap="round" stroke-linejoin="round"/>
<path d="M162.031 298.774C162.031 298.774 151.469 325.046 150.658 326.13C149.846 327.214 144.361 334.143 144.196 335.464C144.031 336.785 151.074 336.943 152.295 336.132C153.515 335.32 154.966 328.234 155.777 326.798C156.588 325.362 174.603 300.663 174.603 300.663L162.031 298.774Z" fill="white" stroke="#263238" stroke-linecap="round" stroke-linejoin="round"/>
<path d="M179.816 222.379L179.615 226.788C179.615 226.788 174.115 238.649 168.766 253.354C162.936 269.386 155.354 297.152 155.354 297.152C155.354 297.152 160.38 301.761 174.022 303.965C187.664 306.17 196.136 307.103 203.546 306.88C212.513 306.608 223.937 304.166 223.937 304.166C223.937 304.166 217.525 264.877 212.312 247.035C207.1 229.193 205.85 227.419 205.85 227.419L204.077 217.475L179.816 222.379Z" fill="#8F8F8F" stroke="#263238" stroke-linecap="round" stroke-linejoin="round"/>
<path d="M188.324 252.736L186.831 305.373" stroke="#263238" stroke-linecap="round" stroke-linejoin="round"/>
<path d="M188.431 248.837L188.374 250.905" stroke="#263238" stroke-linecap="round" stroke-linejoin="round"/>
<path d="M199.812 227.814C200.65 227.642 201.468 227.434 202.268 227.19" stroke="#263238" stroke-linecap="round" stroke-linejoin="round"/>
<path d="M182.02 228.188C186.904 228.78 191.838 228.826 196.732 228.324" stroke="#263238" stroke-linecap="round" stroke-linejoin="round"/>
<path d="M229.76 170.525C229.427 169.07 229.187 167.595 229.042 166.109C228.941 164.343 227.275 161.988 227.469 161.004C227.663 160.021 228.647 160.121 229.142 160.416C229.573 160.776 229.938 161.208 230.219 161.694C230.219 161.694 231.598 157.472 231.598 155.605C231.598 153.738 232.775 153.939 233.264 155.21C233.752 156.481 233.07 161.399 233.07 161.399C234 161.64 234.916 161.935 235.812 162.282C236.703 162.677 238.369 163.46 238.074 165.916C237.78 168.371 237.485 169.742 236.897 169.742C236.308 169.742 235.812 168.96 235.812 168.96C235.812 168.96 235.812 171.609 234.929 172.392C234.144 172.924 233.227 173.23 232.28 173.275C232.28 173.275 232.517 171.315 229.76 170.525Z" fill="white" stroke="#263238" stroke-linecap="round" stroke-linejoin="round"/>
<path d="M235.849 168.96C235.849 168.96 236.445 166.698 236.445 166.404" stroke="#263238" stroke-linecap="round" stroke-linejoin="round"/>
<path d="M230.255 161.694L229.667 164.444" stroke="#263238" stroke-linecap="round" stroke-linejoin="round"/>
<path d="M227.326 173.275L229.171 170.145C229.171 170.145 229.889 169.147 231.591 169.721H231.641C232.388 169.979 233.008 170.511 233.378 171.21C233.747 171.908 233.837 172.721 233.63 173.483L233.156 175.25C233.156 175.25 229.458 173.131 227.326 173.275Z" fill="#215DE5" stroke="#263238" stroke-linecap="round" stroke-linejoin="round"/>
<path d="M150.134 236.021C150.134 236.021 150.586 238.369 150.809 240.042C151.031 241.715 152.144 245.068 152.963 245.513C153.781 245.958 154.75 246.518 153.637 246.856C152.525 247.193 151.85 247.301 150.844 246.518C150.206 246.03 149.63 245.466 149.128 244.838C149.128 244.838 148.353 248.299 147.793 249.979C147.177 251.492 146.43 252.948 145.56 254.33C145.545 254.577 145.472 254.816 145.347 255.029C145.222 255.242 145.049 255.423 144.842 255.558C144.174 255.895 143.693 254.56 143.693 254.56C143.693 254.56 142.796 256.656 142.214 254.445C141.734 251.863 141.437 249.25 141.324 246.626C141.431 245.506 145.948 235.138 145.948 235.138L150.134 236.021Z" fill="white" stroke="#263238" stroke-linecap="round" stroke-linejoin="round"/>
<path d="M143.794 248.306C143.453 248.856 143.21 249.461 143.076 250.094C143.076 250.539 143.657 254.567 143.657 254.567" stroke="#263238" stroke-linecap="round" stroke-linejoin="round"/>
<path d="M145.56 254.337L144.985 250.431L146.005 247.861" stroke="#263238" stroke-linecap="round" stroke-linejoin="round"/>
<path d="M146.343 253.002C146.343 253.002 146.386 250.891 146.529 249.929C146.673 248.967 146.917 249.139 147.247 247.976" stroke="#263238" stroke-linecap="round" stroke-linejoin="round"/>
<path d="M147.455 242.727C147.352 243.399 147.041 244.022 146.565 244.508C145.822 245.19 145.038 245.825 144.217 246.411" stroke="#263238" stroke-linecap="round" stroke-linejoin="round"/>
<path d="M177.389 188.497C177.389 188.497 168.277 192.912 167.71 194.047C167.143 195.181 155.763 215.529 154.197 217.525C152.632 219.521 147.793 222.077 147.226 224.066C146.658 226.055 147.082 231.469 147.082 231.469L145.94 235.167C145.94 235.167 146.084 236.445 148.094 236.875L150.09 237.299L153.508 234.025C153.508 234.025 160.904 232.18 163.89 228.618C166.877 225.057 174.136 208.414 174.136 208.414L172.995 219.658C178.372 220.362 183.808 220.504 189.214 220.081C198.039 219.363 207.71 217.927 207.71 217.927L206.432 204.838C206.432 204.838 227.491 201.428 228.625 200.43C229.76 199.432 230.779 196.732 230.901 195.734C231.023 194.736 234.599 175.673 234.599 175.673C234.102 174.963 233.469 174.358 232.737 173.894C232.005 173.429 231.188 173.114 230.334 172.966C227.347 172.399 224.36 173.964 224.217 174.819C224.073 175.673 217.956 188.051 217.956 188.051C217.956 188.051 217.525 187.764 215.967 188.475C214.409 189.186 211.659 188.073 211.659 188.073C211.659 188.073 206.159 186.486 203.043 186.773C199.927 187.061 196.926 187.491 196.926 187.491C196.926 187.491 191.375 184.928 187.254 186.055C183.133 187.183 177.389 188.497 177.389 188.497Z" fill="#215DE5" stroke="#263238" stroke-linecap="round" stroke-linejoin="round"/>
<path d="M197.019 206.138L206.41 204.86L200.15 208.134" stroke="#263238" stroke-linecap="round" stroke-linejoin="round"/>
<path d="M174.258 202.016L174.115 208.414L171.982 205.714" stroke="#263238" stroke-linecap="round" stroke-linejoin="round"/>
<path d="M148.36 232.036C148.36 232.036 148.791 233.472 152.202 233.472" stroke="#263238" stroke-linecap="round" stroke-linejoin="round"/>
<path d="M185.1 177.073C189.774 180.663 193.716 178.509 195.389 176.815C197.435 174.761 197.421 172.076 198.756 169.513C198.929 168.579 202.023 165.305 202.26 164.53C202.813 162.749 201.75 159.626 201.75 159.626C201.75 159.626 204.766 160.042 203.395 157.027C202.023 154.011 200.788 152.913 197.909 152.64C197.045 152.583 196.181 152.741 195.393 153.099C194.605 153.457 193.918 154.005 193.393 154.693C193.393 154.693 189.968 153.049 187.649 154.284C185.33 155.519 181.941 154.284 179.191 162.634C178.794 163.581 178.512 164.571 178.351 165.585C178.229 168.005 179.614 169.728 180.986 171.724C183.09 174.79 182.163 174.804 185.1 177.073Z" fill="#263238" stroke="#263238" stroke-linecap="round" stroke-linejoin="round"/>
<path d="M190.686 173.146C190.686 173.832 190.483 174.502 190.102 175.072C189.721 175.643 189.179 176.087 188.546 176.35C187.912 176.612 187.215 176.681 186.542 176.547C185.869 176.413 185.251 176.083 184.766 175.598C184.281 175.113 183.951 174.495 183.817 173.822C183.683 173.15 183.752 172.452 184.014 171.819C184.277 171.185 184.721 170.643 185.292 170.262C185.862 169.881 186.533 169.678 187.218 169.678C188.138 169.68 189.019 170.046 189.669 170.696C190.318 171.346 190.684 172.227 190.686 173.146Z" fill="white" stroke="#263238" stroke-linecap="round" stroke-linejoin="round"/>
<path d="M180.886 179.55C180.886 181.704 180.886 183.822 178.961 185.294C176.807 186.895 168.55 193.041 173.088 199.317C177.626 205.592 178.272 203.855 177.877 205.994C177.482 208.134 168.665 214 170.266 219.205C171.868 224.411 178.409 227.348 177.446 229.351C176.484 231.354 179.45 241.234 190.794 236.028C202.138 230.823 201.356 221.855 196.804 211.731C195.748 209.39 196.244 206.403 200.516 201.593C204.788 196.782 201.571 187.556 197.069 182.925C194.413 180.175 193.329 177.985 193.479 177.454C193.63 176.922 189.344 170.647 185.739 172.514C183.499 173.677 181.431 175.896 180.95 178.502C180.898 178.849 180.876 179.2 180.886 179.55Z" fill="#263238" stroke="#263238" stroke-linecap="round" stroke-linejoin="round"/>
<path d="M198.756 169.513C198.756 169.513 197.32 167.552 196.366 169.656C196.005 170.506 195.928 171.448 196.143 172.345C196.359 173.242 196.857 174.046 197.565 174.639C198.541 175.407 199.245 172.6 199.245 172.6" fill="white"/>
<path d="M198.756 169.513C198.756 169.513 197.32 167.552 196.366 169.656C196.005 170.506 195.928 171.448 196.143 172.345C196.359 173.242 196.857 174.046 197.565 174.639C198.541 175.407 199.245 172.6 199.245 172.6" stroke="#263238" stroke-linecap="round" stroke-linejoin="round"/>
<path d="M213.116 338.666C213.928 338.393 215.012 337.582 214.064 336.9C213.116 336.218 210.812 335.952 208.098 332.836L207.954 335.263C204.445 335.108 200.952 334.686 197.507 333.999C197.176 335.072 197 336.187 196.983 337.309C197.256 338.257 199.424 338.53 200.918 338.666C202.411 338.803 205.52 339.205 206.741 339.205C208.876 339.175 211.006 338.995 213.116 338.666Z" fill="#215DE5" stroke="#263238" stroke-linecap="round" stroke-linejoin="round"/>
<path d="M152.323 336.168C152.833 335.83 153.372 334.423 153.896 332.793C151.351 332.897 148.806 332.582 146.364 331.86C145.215 333.482 144.282 334.947 144.21 335.5C144.095 336.85 151.103 336.979 152.323 336.168Z" fill="#215DE5" stroke="#263238" stroke-linecap="round" stroke-linejoin="round"/>
<path d="M58.1363 269.817H52.1123V280.508H58.1363V269.817Z" fill="#263238" stroke="#263238" stroke-linecap="round" stroke-linejoin="round"/>
<path d="M58.445 227.168H50.8844C44.6865 227.168 39.6621 232.192 39.6621 238.39V261.847C39.6621 268.045 44.6865 273.07 50.8844 273.07H58.445C64.6429 273.07 69.6673 268.045 69.6673 261.847V238.39C69.6673 232.192 64.6429 227.168 58.445 227.168Z" fill="#949494" stroke="#263238" stroke-linecap="round" stroke-linejoin="round"/>
<path d="M45.6715 336.541C45.6715 336.037 45.522 335.544 45.242 335.125C44.9619 334.706 44.5638 334.379 44.0981 334.186C43.6323 333.993 43.1198 333.943 42.6254 334.041C42.1309 334.139 41.6768 334.382 41.3203 334.739C40.9638 335.095 40.7211 335.549 40.6227 336.044C40.5244 336.538 40.5748 337.051 40.7678 337.516C40.9607 337.982 41.2874 338.38 41.7065 338.66C42.1257 338.94 42.6185 339.09 43.1226 339.09C43.4576 339.091 43.7895 339.026 44.0992 338.898C44.4088 338.77 44.6902 338.582 44.9271 338.345C45.164 338.109 45.3517 337.827 45.4794 337.518C45.6072 337.208 45.6725 336.876 45.6715 336.541Z" fill="#263238" stroke="#263238" stroke-linecap="round" stroke-linejoin="round"/>
<path d="M95.4508 336.541C95.4508 336.037 95.3013 335.544 95.0213 335.125C94.7412 334.706 94.3431 334.379 93.8773 334.186C93.4116 333.993 92.8991 333.943 92.4047 334.041C91.9102 334.139 91.4561 334.382 91.0996 334.739C90.7431 335.095 90.5004 335.549 90.402 336.044C90.3037 336.538 90.3541 337.051 90.5471 337.516C90.74 337.982 91.0667 338.38 91.4858 338.66C91.905 338.94 92.3978 339.09 92.9019 339.09C93.2369 339.091 93.5688 339.026 93.8785 338.898C94.1881 338.77 94.4695 338.582 94.7064 338.345C94.9433 338.109 95.131 337.827 95.2587 337.518C95.3865 337.208 95.4518 336.876 95.4508 336.541Z" fill="#263238" stroke="#263238" stroke-linecap="round" stroke-linejoin="round"/>
<path d="M69.2507 336.541C69.2507 335.105 68.7194 333.999 68.066 333.999C67.4127 333.999 66.8813 335.134 66.8813 336.541C66.8813 337.948 67.4127 339.09 68.066 339.09C68.7194 339.09 69.2507 337.948 69.2507 336.541Z" fill="#263238" stroke="#263238" stroke-linecap="round" stroke-linejoin="round"/>
<path d="M70.3852 322.712V286.188H65.3808V322.863L40.7031 332.628V335.083H44.2859V333.008L68.0733 328.097L91.8606 333.008V335.083H95.4434V332.628L70.3852 322.712Z" fill="#263238" stroke="#263238" stroke-linecap="round" stroke-linejoin="round"/>
<path d="M66.8168 335.076H69.3155L69.854 323.215H66.2783L66.8168 335.076Z" fill="#263238" stroke="#263238" stroke-linecap="round" stroke-linejoin="round"/>
<path d="M74.2338 284.795H61.5181V292.348H74.2338V284.795Z" fill="#263238" stroke="#263238" stroke-linecap="round" stroke-linejoin="round"/>
<path d="M85.8942 277.837H48.6731C46.3295 277.837 44.4297 279.737 44.4297 282.081V283.33C44.4297 285.674 46.3295 287.573 48.6731 287.573H85.8942C88.2377 287.573 90.1376 285.674 90.1376 283.33V282.081C90.1376 279.737 88.2377 277.837 85.8942 277.837Z" fill="#949494" stroke="#263238" stroke-linecap="round" stroke-linejoin="round"/>
<path d="M121.966 300.418L125.757 306.04L130.259 305.76C130.259 305.76 136.85 305.847 137.978 305.559C139.105 305.272 139.521 306.277 138.961 307.39C138.401 308.503 133.505 312.021 130.97 313.572C128.175 315.177 125.258 316.56 122.246 317.708C121.528 317.851 120.695 316.444 119.152 312.086C117.993 309.043 116.533 306.123 114.793 303.369L121.966 300.418Z" fill="white" stroke="#263238" stroke-linecap="round" stroke-linejoin="round"/>
<path d="M138.961 307.39C139.521 306.263 139.105 305.279 137.978 305.559C136.85 305.839 130.259 305.76 130.259 305.76L125.757 306.04C125.788 307.337 126.031 308.62 126.475 309.839C126.475 309.839 120.15 311.382 119.166 312.086C120.71 316.444 121.557 317.83 122.261 317.708C125.272 316.56 128.189 315.177 130.984 313.572C133.504 312.021 138.401 308.517 138.961 307.39Z" fill="white" stroke="#263238" stroke-linecap="round" stroke-linejoin="round"/>
<path d="M138.768 305.624C137.221 307.173 135.504 308.541 133.648 309.702C129.558 312.218 125.261 314.38 120.803 316.164C121.399 317.349 121.844 317.772 122.239 317.693C125.251 316.546 128.168 315.163 130.963 313.558C133.497 312.007 138.394 308.532 138.954 307.376C139.356 306.586 139.292 305.868 138.768 305.624Z" fill="#215DE5" stroke="#263238" stroke-linecap="round" stroke-linejoin="round"/>
<path d="M112.123 255.802C112.647 254.632 116.847 269.997 120.215 284.651C122.491 294.545 124.479 300.447 124.479 300.447C122.866 301.845 121.131 303.097 119.296 304.188C117.328 305.172 113.954 306.435 113.954 306.435C113.954 306.435 108.928 295.507 106.113 290.022C103.298 284.536 102.523 280.875 100.269 276.796C98.014 272.718 97.4468 265.38 97.4468 265.38C97.4468 265.38 96.0108 258.351 101.381 256.52C106.752 254.689 110.572 253.835 112.123 255.802Z" fill="#215DE5" stroke="#263238" stroke-linecap="round" stroke-linejoin="round"/>
<path d="M97.2599 314.944C97.2599 314.944 96.2834 320.968 95.63 323.165C94.9766 325.362 93.1673 329.361 93.7345 330.345C94.3017 331.328 97.3245 332.355 98.8323 332.499C100.34 332.642 102.322 335.127 105.172 336.16C108.023 337.194 111.778 336.914 111.692 336.16C111.606 335.407 103.262 326.216 102.853 323.99C102.444 321.765 103.909 314.771 103.909 314.771L97.2599 314.944Z" fill="white" stroke="#263238" stroke-linecap="round" stroke-linejoin="round"/>
<path d="M101.812 325.484L101.582 326.116C99.3803 325.868 97.2039 325.431 95.0771 324.809C94.3017 326.963 93.2893 329.576 93.7345 330.359C94.3017 331.357 97.3245 332.369 98.8323 332.513C100.34 332.657 102.322 335.141 105.172 336.175C108.023 337.209 111.778 336.929 111.692 336.175C111.605 335.421 103.262 326.231 102.853 324.005C102.432 324.441 102.081 324.94 101.812 325.484Z" fill="white" stroke="#263238" stroke-linecap="round" stroke-linejoin="round"/>
<path d="M105 334.667C102.745 333.561 100.692 331.673 97.7122 330.661C95.7592 329.993 94.4022 329.454 93.6914 329.16C93.5781 329.554 93.5932 329.974 93.7345 330.359C94.3017 331.357 97.3245 332.369 98.8323 332.513C100.34 332.657 102.322 335.141 105.172 336.175C107.886 337.166 111.419 336.95 111.67 336.282C109.796 336.024 106.544 335.428 105 334.667Z" fill="#215DE5" stroke="#263238" stroke-linecap="round" stroke-linejoin="round"/>
<path d="M95.7668 269.659C95.7668 269.659 106.874 270.923 107.714 276.545C108.554 282.167 106.594 317.169 106.594 317.169C104.947 317.243 103.297 317.15 101.669 316.889C99.4215 316.466 95.6304 315.626 95.6304 315.626C95.6304 315.626 95.0632 303.678 94.3596 298.896C93.6559 294.114 93.0959 280.228 93.0959 280.228C93.0959 280.228 74.5428 278.685 72.8555 277.557C71.1682 276.43 95.7668 269.659 95.7668 269.659Z" fill="#215DE5" stroke="#263238" stroke-linecap="round" stroke-linejoin="round"/>
<path d="M110.378 265.66C110.378 265.66 82.9718 276.516 76.6318 278.627C70.9212 280.432 64.8003 280.479 59.0624 278.764C54.7041 277.328 52.6004 271.763 52.6004 271.763C52.6004 271.763 51.509 270.471 52.069 269.207C52.6291 267.943 61.6256 259.93 67.147 258.523C72.6685 257.116 82.5481 257.733 82.5481 257.733C82.5481 257.733 106.501 251.602 109.452 252.025C112.403 252.449 114.75 262.953 115.196 264.36" fill="#215DE5"/>
<path d="M110.378 265.66C110.378 265.66 82.9718 276.516 76.6318 278.627C70.9213 280.432 64.8003 280.479 59.0624 278.764C54.7041 277.328 52.6004 271.763 52.6004 271.763C52.6004 271.763 51.509 270.471 52.069 269.207C52.6291 267.943 61.6256 259.93 67.147 258.523C72.6685 257.116 82.5481 257.733 82.5481 257.733C82.5481 257.733 106.501 251.602 109.452 252.025C112.403 252.449 114.75 262.953 115.196 264.36" stroke="#263238" stroke-linecap="round" stroke-linejoin="round"/>
<path d="M58.9331 272.89C58.9331 272.89 60.9004 265.157 66.1131 261.926" stroke="#263238" stroke-linecap="round" stroke-linejoin="round"/>
<path d="M57.813 267.692C57.813 267.692 59.9167 264.454 62.7313 263.75" stroke="#263238" stroke-linecap="round" stroke-linejoin="round"/>
<path d="M79.7694 215.802C79.7694 215.802 81.708 217.913 83.9769 223.413C86.2458 228.913 89.9219 245.556 89.9219 245.556C88.8649 245.991 87.7449 246.252 86.6048 246.332C85.1688 246.332 83.2086 246.533 82.3973 245.556C81.5859 244.58 79.2812 236.99 79.2812 236.99C79.2812 236.99 78.1467 227.757 77.8452 223.061C77.5436 218.365 76.0645 217.396 77.5221 215.939C78.9796 214.481 79.7694 215.802 79.7694 215.802Z" fill="white" stroke="#263238" stroke-linecap="round" stroke-linejoin="round"/>
<path d="M74.2123 212.528C74.2123 212.528 78.3839 213.54 79.7696 215.838C81.1553 218.136 80.5307 223.406 80.5307 223.406C80.5307 223.406 84.214 234.097 83.5247 236.631C82.8355 239.166 80.0712 242.842 80.0712 242.842C80.0712 242.842 80.3009 251.128 80.9902 252.736C81.5974 254.39 82.0987 256.081 82.4908 257.798C82.4908 257.798 80.5307 259.177 74.0902 260.096C67.6498 261.015 62.3581 261.474 60.1754 263.205C57.9927 264.935 53.1533 271.483 52.5789 271.821C52.0045 272.158 51.545 270.88 51.0783 269.961C50.6116 269.042 50.7337 266.27 51.7963 262.128C52.859 257.985 53.3759 245.965 51.9327 238.362C50.3747 230.119 49.5059 228.927 50.4249 223.521C51.344 218.114 64.1172 209.879 65.9553 209.527C67.7934 209.175 74.2123 212.528 74.2123 212.528Z" fill="white" stroke="#263238" stroke-linecap="round" stroke-linejoin="round"/>
<path d="M53.8496 264.877C53.8496 264.877 57.3606 260.799 59.0479 260.096C60.7352 259.392 72.5463 259.378 72.5463 259.378" stroke="white" stroke-linecap="round" stroke-linejoin="round"/>
<path d="M56.4058 259.679C57.5046 259.041 58.686 258.558 59.9168 258.243C61.7903 258.097 63.6724 258.097 65.5459 258.243" stroke="white" stroke-linecap="round" stroke-linejoin="round"/>
<path d="M62.5879 245.621C66.4171 244.123 69.9081 241.875 72.8553 239.008" stroke="#263238" stroke-linecap="round" stroke-linejoin="round"/>
<path d="M74.399 183.636C74.399 183.636 75.9498 186.953 76.4668 187.987C76.9838 189.021 76.7755 190.78 77.1848 192.23C77.5941 193.681 79.9778 194.614 79.9778 195.44C79.8132 196.316 79.4973 197.156 79.0444 197.924C79.0444 197.924 78.5275 204.343 77.7018 205.068C76.8761 205.793 73.4584 206.001 73.4584 206.001L73.1712 212.148L75.1241 213.296C75.1241 213.296 75.4688 220.081 75.1241 222.501C74.7795 224.921 73.6881 225.423 70.6366 223.6C67.2261 221.568 62.8176 216.168 62.3581 215.02C61.8986 213.871 63.313 209.828 61.238 203.208C59.163 196.588 63.7295 190.579 66.7307 187.779C69.732 184.978 71.1895 183.09 74.399 183.636Z" fill="white" stroke="#263238" stroke-linecap="round" stroke-linejoin="round"/>
<path d="M74.3989 183.636C74.2912 181.776 74.0829 181.051 70.256 180.634C66.4291 180.218 58.2439 179.916 55.0344 185.603C51.8249 191.29 51.8249 203.725 51.8249 203.725C51.8249 203.725 43.4961 208.924 42.9217 213.059C42.3473 217.195 45.0757 221.108 49.4771 222.494L49.7356 222.558C50.1224 220.632 50.9397 218.818 52.1265 217.252C54.6108 214.273 56.7648 214.603 59.9168 213.77C63.0688 212.937 65.072 212.729 65.5387 209.132C65.9304 206.099 65.9497 203.029 65.5962 199.992C65.4957 198.75 66.8383 196.883 66.8383 196.883C66.8383 196.883 70.0478 197.709 72.1156 192.122C74.1835 186.536 74.4994 185.503 74.3989 183.636Z" fill="#263238" stroke="#263238" stroke-linecap="round" stroke-linejoin="round"/>
<path d="M68.2098 198.441C68.2098 198.441 67.1687 193.681 64.4762 195.569C61.7837 197.457 65.826 202.713 66.4435 202.814C67.0316 202.787 67.603 202.609 68.1021 202.297" fill="white"/>
<path d="M68.2098 198.441C68.2098 198.441 67.1687 193.681 64.4762 195.569C61.7837 197.457 65.826 202.713 66.4435 202.814C67.0316 202.787 67.603 202.609 68.1021 202.297" stroke="#263238" stroke-linecap="round" stroke-linejoin="round"/>
<path d="M73.4653 206.001L70.2559 205.585L73.2786 206.116L73.4653 206.001Z" fill="#263238" stroke="#263238" stroke-linecap="round" stroke-linejoin="round"/>
<path d="M76.8687 193.415C77.0051 194.133 76.8687 194.736 76.5528 194.793C76.2369 194.851 75.8851 194.334 75.7558 193.63C75.6266 192.927 75.7558 192.316 76.0646 192.252C76.3733 192.187 76.7323 192.718 76.8687 193.415Z" fill="#263238"/>
<path d="M60.3836 226.378L59.3066 225.036" stroke="#263238" stroke-linecap="round" stroke-linejoin="round"/>
<path d="M56.535 213.627C56.535 213.627 52.5213 213.49 49.477 217.777C46.4327 222.063 47.5384 227.462 48.3713 229.681C49.2042 231.9 55.8457 244.903 56.815 246.561C57.7843 248.22 61.2379 250.575 62.0707 250.869C62.9036 251.164 65.6607 235.92 65.3951 234.535C65.1294 233.149 58.7464 223.463 58.7464 223.463" fill="white"/>
<path d="M56.535 213.627C56.535 213.627 52.5213 213.49 49.477 217.777C46.4327 222.063 47.5384 227.462 48.3713 229.681C49.2042 231.9 55.8457 244.903 56.815 246.561C57.7843 248.22 61.2379 250.575 62.0707 250.869C62.9036 251.164 65.6607 235.92 65.3951 234.535C65.1294 233.149 58.7464 223.463 58.7464 223.463" stroke="#263238" stroke-linecap="round" stroke-linejoin="round"/>
<path d="M59.3067 250.13C58.1159 249.984 56.9154 249.934 55.7167 249.979C54.6971 250.115 54.934 250.288 55.4797 250.841C56.0254 251.393 57.2173 251.156 57.2173 251.156L59.3067 250.13Z" stroke="#263238" stroke-linecap="round" stroke-linejoin="round"/>
<path d="M88.4575 242.016C89.5489 243.029 91.9686 249.663 87.2872 250.596C82.6058 251.53 70.2778 250.288 69.8039 250.754C69.33 251.221 65.4385 254.265 64.5769 254.89C63.6822 255.429 62.7341 255.874 61.7479 256.218C61.7479 256.218 59.9529 257.618 59.4862 257.31C59.0195 257.001 59.9529 256.218 59.9529 256.218C59.1646 256.697 58.3269 257.09 57.4543 257.389C56.8296 257.468 56.9086 256.527 56.9086 256.527C56.6214 256.675 56.2952 256.73 55.9752 256.685C55.9126 256.455 55.908 256.214 55.9619 255.982C56.0157 255.75 56.1264 255.535 56.284 255.357C56.8296 254.732 59.4862 252.162 59.4862 252.162C58.8602 252.351 58.258 252.611 57.6912 252.937C57.5333 253.174 56.5999 253.799 56.0542 254.265C55.5085 254.732 55.0346 254.653 54.8839 254.265C54.7331 253.878 55.6019 252.557 56.4706 251.659C57.3394 250.762 62.028 248.959 62.9326 248.959C63.8373 248.959 71.4912 246.554 71.4912 246.554C71.4912 246.554 85.5568 241.7 85.9445 241.528" fill="white"/>
<path d="M88.4575 242.016C89.5489 243.029 91.9686 249.663 87.2872 250.596C82.6058 251.53 70.2778 250.288 69.8039 250.754C69.33 251.221 65.4385 254.265 64.5769 254.89C63.6822 255.429 62.7341 255.874 61.7479 256.218C61.7479 256.218 59.9529 257.618 59.4862 257.31C59.0195 257.001 59.9529 256.218 59.9529 256.218C59.1646 256.697 58.3269 257.09 57.4543 257.389C56.8296 257.468 56.9086 256.527 56.9086 256.527C56.6214 256.675 56.2952 256.73 55.9752 256.685C55.9126 256.455 55.908 256.214 55.9619 255.982C56.0157 255.75 56.1264 255.535 56.284 255.357C56.8296 254.732 59.4862 252.162 59.4862 252.162C58.8602 252.351 58.258 252.611 57.6912 252.937C57.5333 253.174 56.5999 253.799 56.0542 254.265C55.5085 254.732 55.0346 254.653 54.8839 254.265C54.7331 253.878 55.6019 252.557 56.4706 251.659C57.3394 250.762 62.028 248.959 62.9326 248.959C63.8373 248.959 71.4912 246.554 71.4912 246.554C71.4912 246.554 85.5568 241.7 85.9445 241.528" stroke="#263238" stroke-linecap="round" stroke-linejoin="round"/>
<path d="M76.3086 244.924C76.3086 244.924 77.9672 247.358 75.8706 250.568" stroke="#263238" stroke-linecap="round" stroke-linejoin="round"/>
<path d="M56.9302 256.527L59.8596 254.079L61.4392 252.815" stroke="#263238" stroke-linecap="round" stroke-linejoin="round"/>
<path d="M59.9741 256.218C59.9741 256.218 62.3076 254.308 62.5446 254.229" stroke="#263238" stroke-linecap="round" stroke-linejoin="round"/>
<path d="M56.8149 240.336C56.9442 243.172 56.0969 247.272 60.2542 249.893C62.2502 251.149 65.2155 252.341 66.7162 249.053C68.2168 245.764 69.2938 216.298 69.2938 216.298L71.0385 215.824C72.7833 215.343 73.7526 212.463 73.7526 212.463C73.5389 212.708 73.4212 213.022 73.4212 213.347C73.4212 213.671 73.5389 213.985 73.7526 214.23C74.5495 215.027 77.7303 211.688 77.8882 210.733C78.0462 209.778 75.8204 206.763 75.8204 206.763C76.1161 206.589 76.3512 206.328 76.4938 206.016C76.6363 205.704 76.6795 205.355 76.6174 205.018C76.4594 203.747 72.0581 205.018 72.0581 205.018L69.4661 208.378C69.4661 208.378 65.6679 213.246 65.3376 214.546C65.0791 215.601 61.446 227.06 59.3567 232.144" fill="white"/>
<path d="M56.8149 240.336C56.9442 243.172 56.0969 247.272 60.2542 249.893C62.2502 251.149 65.2155 252.341 66.7162 249.053C68.2168 245.764 69.2938 216.298 69.2938 216.298L71.0385 215.824C72.7833 215.343 73.7526 212.463 73.7526 212.463C73.539 212.708 73.4212 213.022 73.4212 213.347C73.4212 213.671 73.539 213.985 73.7526 214.23C74.5495 215.027 77.7303 211.688 77.8882 210.733C78.0462 209.778 75.8204 206.763 75.8204 206.763C76.1161 206.589 76.3512 206.328 76.4938 206.016C76.6363 205.704 76.6795 205.355 76.6174 205.018C76.4594 203.747 72.0581 205.018 72.0581 205.018L69.4661 208.378C69.4661 208.378 65.6679 213.246 65.3376 214.546C65.0791 215.601 61.446 227.06 59.3567 232.144" stroke="#263238" stroke-linecap="round" stroke-linejoin="round"/>
<path d="M62.6953 223.119L68.4537 225.337" stroke="#263238" stroke-linecap="round" stroke-linejoin="round"/>
</svg>
