<svg width="142" height="62" viewBox="0 0 142 62" fill="none" xmlns="http://www.w3.org/2000/svg">
<line x1="62.5" y1="2" x2="62.5" y2="57" stroke="#445EC1" stroke-width="5"/>
<path d="M80 4.76C82.496 4.76 84.5333 4.99467 86.112 5.464C87.712 5.93333 88.9493 6.81867 89.824 8.12C90.72 9.42133 91.168 11.288 91.168 13.72C91.168 16.3227 90.6987 18.3067 89.76 19.672C88.8213 21.016 87.5627 21.912 85.984 22.36C84.4053 22.7867 82.4107 23 80 23H73.6V4.76H80ZM84.288 18.648C84.544 18.392 84.7253 17.7307 84.832 16.664C84.9387 15.5973 84.992 14.616 84.992 13.72C84.992 12.5893 84.9067 11.6933 84.736 11.032C84.5867 10.3493 84.3093 9.80533 83.904 9.4C83.264 8.696 82.1653 8.344 80.608 8.344C80.3307 8.344 79.9147 8.36533 79.36 8.408V19.032C79.7227 19.0747 80.288 19.096 81.056 19.096C81.8453 19.096 82.5387 19.064 83.136 19C83.7547 18.9147 84.1387 18.7973 84.288 18.648ZM96.285 6.456C95.5597 6.456 94.9303 6.21067 94.397 5.72C93.885 5.22933 93.629 4.64267 93.629 3.96C93.629 3.27733 93.885 2.69067 94.397 2.2C94.9303 1.70933 95.5597 1.464 96.285 1.464C97.0103 1.464 97.629 1.70933 98.141 2.2C98.653 2.69067 98.909 3.27733 98.909 3.96C98.909 4.64267 98.653 5.22933 98.141 5.72C97.629 6.21067 97.0103 6.456 96.285 6.456ZM93.533 8.28H99.005V23H93.533V8.28ZM111.19 8.28H116.918L112.438 23H104.854L100.374 8.28H106.102L108.502 19.576H108.822L111.19 8.28ZM121.035 6.456C120.31 6.456 119.68 6.21067 119.147 5.72C118.635 5.22933 118.379 4.64267 118.379 3.96C118.379 3.27733 118.635 2.69067 119.147 2.2C119.68 1.70933 120.31 1.464 121.035 1.464C121.76 1.464 122.379 1.70933 122.891 2.2C123.403 2.69067 123.659 3.27733 123.659 3.96C123.659 4.64267 123.403 5.22933 122.891 5.72C122.379 6.21067 121.76 6.456 121.035 6.456ZM118.283 8.28H123.755V23H118.283V8.28ZM97.12 53H91.744L91.328 42.952C91.264 40.968 91.1893 39.464 91.104 38.44H91.008C90.752 39.2507 90.4533 40.5093 90.112 42.216L89.952 43.016L87.744 53H82.368L80.512 44.008L80.192 42.408C79.744 40.424 79.4347 39.1013 79.264 38.44H79.168C79.0827 39.5067 79.008 41.2453 78.944 43.656C78.9227 43.8053 78.912 44.04 78.912 44.36L78.624 53H73.216L73.984 34.76H83.136L84.704 42.632L85.088 44.744C85.2587 44.0827 85.4187 43.3467 85.568 42.536L87.04 34.76H96.384L97.12 53ZM108.424 53L107.912 50.984C106.93 52.584 105.565 53.384 103.816 53.384C102.386 53.384 101.213 52.9893 100.296 52.2C99.3998 51.3893 98.9518 50.2587 98.9518 48.808C98.9518 47.912 99.2078 47.1333 99.7198 46.472C100.253 45.7893 100.978 45.3093 101.896 45.032C103.09 44.6907 104.936 44.4987 107.432 44.456C107.432 43.048 107.368 42.3013 107.24 42.216C107.133 42.1307 106.792 42.088 106.216 42.088C105.853 42.088 105.352 42.1093 104.712 42.152C103.688 42.1947 102.301 42.312 100.552 42.504C100.381 41.352 100.253 40.1147 100.168 38.792C101.298 38.5573 102.482 38.3653 103.72 38.216C104.957 38.0453 106.066 37.96 107.048 37.96C108.754 37.96 110.034 38.248 110.888 38.824C111.741 39.3787 112.296 40.1147 112.552 41.032C112.808 41.9493 112.925 43.112 112.904 44.52L112.872 49.224L112.968 53H108.424ZM105.672 49.8C106.226 49.8 106.813 49.6933 107.432 49.48V47.112H107.176C105.597 47.112 104.722 47.1973 104.552 47.368C104.445 47.4747 104.36 47.6347 104.296 47.848C104.253 48.0613 104.232 48.264 104.232 48.456C104.232 48.968 104.349 49.32 104.584 49.512C104.818 49.704 105.181 49.8 105.672 49.8ZM122.159 46.952C122.159 47.336 122.169 47.7413 122.191 48.168C122.212 48.5733 122.276 48.8293 122.383 48.936C122.532 49.0853 123.055 49.16 123.951 49.16L125.039 49.128C125.231 50.152 125.327 51.336 125.327 52.68C124.921 52.8293 124.324 52.968 123.535 53.096C122.767 53.224 122.031 53.288 121.327 53.288C119.855 53.288 118.713 52.968 117.903 52.328C117.113 51.6667 116.719 50.6533 116.719 49.288V41.416H114.319V38.504L116.719 38.28L118.159 34.76L122.159 34.536V38.28H125.551V41.416H122.159V46.952ZM136.115 49.16C136.648 49.16 137.64 49.1067 139.091 49C139.283 49 139.635 48.9787 140.147 48.936L140.627 52.232C138.984 53 136.851 53.384 134.227 53.384C131.774 53.384 129.886 52.7653 128.563 51.528C127.262 50.2907 126.611 48.424 126.611 45.928C126.611 44.648 126.771 43.4107 127.091 42.216C127.432 41.0213 127.816 40.1893 128.243 39.72C128.691 39.2507 129.523 38.8453 130.739 38.504C131.955 38.1627 133.16 37.992 134.355 37.992C136.275 37.992 137.715 38.3333 138.675 39.016C139.635 39.6987 140.264 40.648 140.563 41.864C140.862 43.0587 141.011 44.6693 141.011 46.696C139.56 46.7813 138.142 46.824 136.755 46.824H132.211C132.211 47.5067 132.35 48.0187 132.627 48.36C132.926 48.7013 133.342 48.9253 133.875 49.032C134.408 49.1173 135.155 49.16 136.115 49.16ZM132.531 41.8C132.403 41.864 132.307 42.1413 132.243 42.632C132.179 43.1227 132.136 43.6773 132.115 44.296H133.779C134.782 44.296 135.507 44.2853 135.955 44.264C135.955 43.24 135.806 42.5147 135.507 42.088C135.23 41.6613 134.739 41.448 134.035 41.448C133.459 41.448 132.958 41.5653 132.531 41.8Z" fill="#445EC1"/>
<path d="M44 4L40 0L36 4L32 0L28 4L24 0L20 4L16 0L12 4L8 0V37.3333H0V45.3333C0 49.76 3.57333 53.3333 8 53.3333H40C44.4267 53.3333 48 49.76 48 45.3333V0L44 4ZM42.6667 45.3333C42.6667 46.8 41.4667 48 40 48C38.5333 48 37.3333 46.8 37.3333 45.3333V37.3333H13.3333V8H42.6667V45.3333Z" fill="#445EC1"/>
<path d="M32 13.3333H16V18.6667H32V13.3333Z" fill="#445EC1"/>
<path d="M40 13.3333H34.6667V18.6667H40V13.3333Z" fill="#445EC1"/>
<path d="M32 21.3333H16V26.6667H32V21.3333Z" fill="#445EC1"/>
<path d="M40 21.3333H34.6667V26.6667H40V21.3333Z" fill="#445EC1"/>
</svg>
