<svg width="148" height="66" viewBox="0 0 148 66" fill="none" xmlns="http://www.w3.org/2000/svg">
<line x1="69.5" y1="4" x2="69.5" y2="59" stroke="white" stroke-width="5"/>
<path d="M86 8.76C88.496 8.76 90.5333 8.99467 92.112 9.464C93.712 9.93333 94.9493 10.8187 95.824 12.12C96.72 13.4213 97.168 15.288 97.168 17.72C97.168 20.3227 96.6987 22.3067 95.76 23.672C94.8213 25.016 93.5627 25.912 91.984 26.36C90.4053 26.7867 88.4107 27 86 27H79.6V8.76H86ZM90.288 22.648C90.544 22.392 90.7253 21.7307 90.832 20.664C90.9387 19.5973 90.992 18.616 90.992 17.72C90.992 16.5893 90.9067 15.6933 90.736 15.032C90.5867 14.3493 90.3093 13.8053 89.904 13.4C89.264 12.696 88.1653 12.344 86.608 12.344C86.3307 12.344 85.9147 12.3653 85.36 12.408V23.032C85.7227 23.0747 86.288 23.096 87.056 23.096C87.8453 23.096 88.5387 23.064 89.136 23C89.7547 22.9147 90.1387 22.7973 90.288 22.648ZM102.285 10.456C101.56 10.456 100.93 10.2107 100.397 9.72C99.885 9.22933 99.629 8.64267 99.629 7.96C99.629 7.27733 99.885 6.69067 100.397 6.2C100.93 5.70933 101.56 5.464 102.285 5.464C103.01 5.464 103.629 5.70933 104.141 6.2C104.653 6.69067 104.909 7.27733 104.909 7.96C104.909 8.64267 104.653 9.22933 104.141 9.72C103.629 10.2107 103.01 10.456 102.285 10.456ZM99.533 12.28H105.005V27H99.533V12.28ZM117.19 12.28H122.918L118.438 27H110.854L106.374 12.28H112.102L114.502 23.576H114.822L117.19 12.28ZM127.035 10.456C126.31 10.456 125.68 10.2107 125.147 9.72C124.635 9.22933 124.379 8.64267 124.379 7.96C124.379 7.27733 124.635 6.69067 125.147 6.2C125.68 5.70933 126.31 5.464 127.035 5.464C127.76 5.464 128.379 5.70933 128.891 6.2C129.403 6.69067 129.659 7.27733 129.659 7.96C129.659 8.64267 129.403 9.22933 128.891 9.72C128.379 10.2107 127.76 10.456 127.035 10.456ZM124.283 12.28H129.755V27H124.283V12.28ZM103.12 57H97.744L97.328 46.952C97.264 44.968 97.1893 43.464 97.104 42.44H97.008C96.752 43.2507 96.4533 44.5093 96.112 46.216L95.952 47.016L93.744 57H88.368L86.512 48.008L86.192 46.408C85.744 44.424 85.4347 43.1013 85.264 42.44H85.168C85.0827 43.5067 85.008 45.2453 84.944 47.656C84.9227 47.8053 84.912 48.04 84.912 48.36L84.624 57H79.216L79.984 38.76H89.136L90.704 46.632L91.088 48.744C91.2587 48.0827 91.4187 47.3467 91.568 46.536L93.04 38.76H102.384L103.12 57ZM114.424 57L113.912 54.984C112.93 56.584 111.565 57.384 109.816 57.384C108.386 57.384 107.213 56.9893 106.296 56.2C105.4 55.3893 104.952 54.2587 104.952 52.808C104.952 51.912 105.208 51.1333 105.72 50.472C106.253 49.7893 106.978 49.3093 107.896 49.032C109.09 48.6907 110.936 48.4987 113.432 48.456C113.432 47.048 113.368 46.3013 113.24 46.216C113.133 46.1307 112.792 46.088 112.216 46.088C111.853 46.088 111.352 46.1093 110.712 46.152C109.688 46.1947 108.301 46.312 106.552 46.504C106.381 45.352 106.253 44.1147 106.168 42.792C107.298 42.5573 108.482 42.3653 109.72 42.216C110.957 42.0453 112.066 41.96 113.048 41.96C114.754 41.96 116.034 42.248 116.888 42.824C117.741 43.3787 118.296 44.1147 118.552 45.032C118.808 45.9493 118.925 47.112 118.904 48.52L118.872 53.224L118.968 57H114.424ZM111.672 53.8C112.226 53.8 112.813 53.6933 113.432 53.48V51.112H113.176C111.597 51.112 110.722 51.1973 110.552 51.368C110.445 51.4747 110.36 51.6347 110.296 51.848C110.253 52.0613 110.232 52.264 110.232 52.456C110.232 52.968 110.349 53.32 110.584 53.512C110.818 53.704 111.181 53.8 111.672 53.8ZM128.159 50.952C128.159 51.336 128.169 51.7413 128.191 52.168C128.212 52.5733 128.276 52.8293 128.383 52.936C128.532 53.0853 129.055 53.16 129.951 53.16L131.039 53.128C131.231 54.152 131.327 55.336 131.327 56.68C130.921 56.8293 130.324 56.968 129.535 57.096C128.767 57.224 128.031 57.288 127.327 57.288C125.855 57.288 124.713 56.968 123.903 56.328C123.113 55.6667 122.719 54.6533 122.719 53.288V45.416H120.319V42.504L122.719 42.28L124.159 38.76L128.159 38.536V42.28H131.551V45.416H128.159V50.952ZM142.115 53.16C142.648 53.16 143.64 53.1067 145.091 53C145.283 53 145.635 52.9787 146.147 52.936L146.627 56.232C144.984 57 142.851 57.384 140.227 57.384C137.774 57.384 135.886 56.7653 134.563 55.528C133.262 54.2907 132.611 52.424 132.611 49.928C132.611 48.648 132.771 47.4107 133.091 46.216C133.432 45.0213 133.816 44.1893 134.243 43.72C134.691 43.2507 135.523 42.8453 136.739 42.504C137.955 42.1627 139.16 41.992 140.355 41.992C142.275 41.992 143.715 42.3333 144.675 43.016C145.635 43.6987 146.264 44.648 146.563 45.864C146.862 47.0587 147.011 48.6693 147.011 50.696C145.56 50.7813 144.142 50.824 142.755 50.824H138.211C138.211 51.5067 138.35 52.0187 138.627 52.36C138.926 52.7013 139.342 52.9253 139.875 53.032C140.408 53.1173 141.155 53.16 142.115 53.16ZM138.531 45.8C138.403 45.864 138.307 46.1413 138.243 46.632C138.179 47.1227 138.136 47.6773 138.115 48.296H139.779C140.782 48.296 141.507 48.2853 141.955 48.264C141.955 47.24 141.806 46.5147 141.507 46.088C141.23 45.6613 140.739 45.448 140.035 45.448C139.459 45.448 138.958 45.5653 138.531 45.8Z" fill="white"/>
<path d="M52 9L48 5L44 9L40 5L36 9L32 5L28 9L24 5L20 9L16 5V42.3333H8V50.3333C8 54.76 11.5733 58.3333 16 58.3333H48C52.4267 58.3333 56 54.76 56 50.3333V5L52 9ZM50.6667 50.3333C50.6667 51.8 49.4667 53 48 53C46.5333 53 45.3333 51.8 45.3333 50.3333V42.3333H21.3333V13H50.6667V50.3333Z" fill="white"/>
<path d="M40 18.3333H24V23.6667H40V18.3333Z" fill="white"/>
<path d="M48 18.3333H42.6666V23.6667H48V18.3333Z" fill="white"/>
<path d="M40 26.3333H24V31.6667H40V26.3333Z" fill="white"/>
<path d="M48 26.3333H42.6666V31.6667H48V26.3333Z" fill="white"/>
</svg>
